<svg xmlns="http://www.w3.org/2000/svg" xmlns:xlink="http://www.w3.org/1999/xlink" width="36" height="36" viewBox="0 0 36 36">
  <defs>
    <linearGradient id="linear-gradient" x1="0.872" y1="0.093" x2="0.142" y2="0.932" gradientUnits="objectBoundingBox">
      <stop offset="0" stop-color="#342e80"/>
      <stop offset="1" stop-color="#5c6ebc"/>
    </linearGradient>
    <filter id="Rectangle_18" x="-148.5" y="-98.5" width="333" height="333" filterUnits="userSpaceOnUse">
      <feOffset dy="50" input="SourceAlpha"/>
      <feGaussianBlur stdDeviation="49.5" result="blur"/>
      <feFlood flood-opacity="0.161"/>
      <feComposite operator="in" in2="blur"/>
      <feComposite in="SourceGraphic"/>
    </filter>
    <linearGradient id="linear-gradient-2" x1="0.5" x2="0.5" y2="1" gradientUnits="objectBoundingBox">
      <stop offset="0" stop-color="#fff" stop-opacity="0.2"/>
      <stop offset="1" stop-color="#fff"/>
    </linearGradient>
    <linearGradient id="linear-gradient-12" x1="0.881" y1="0.863" x2="0.24" y2="0.176" gradientUnits="objectBoundingBox">
      <stop offset="0" stop-color="#a8a8a8"/>
      <stop offset="1" stop-color="#eaeaea"/>
    </linearGradient>
    <filter id="Subtraction_2" x="-11.305" y="-22.686" width="69.799" height="69.799" filterUnits="userSpaceOnUse">
      <feOffset input="SourceAlpha"/>
      <feGaussianBlur stdDeviation="10" result="blur-2"/>
      <feFlood flood-color="#fff"/>
      <feComposite operator="in" in2="blur-2"/>
      <feComposite in="SourceGraphic"/>
    </filter>
    <linearGradient id="linear-gradient-13" x1="0.588" x2="0.316" y2="0.826" gradientUnits="objectBoundingBox">
      <stop offset="0" stop-color="#f8f8f8"/>
      <stop offset="1" stop-color="#b7b7b7"/>
    </linearGradient>
    <linearGradient id="linear-gradient-14" x1="0.184" y1="0.127" x2="0.839" y2="0.848" gradientUnits="objectBoundingBox">
      <stop offset="0" stop-color="#fff"/>
      <stop offset="1" stop-color="#f2f2f2"/>
    </linearGradient>
    <filter id="Subtraction_1" x="-9.571" y="-20.807" width="68.916" height="68.916" filterUnits="userSpaceOnUse">
      <feOffset input="SourceAlpha"/>
      <feGaussianBlur stdDeviation="10" result="blur-3"/>
      <feFlood flood-color="#fff"/>
      <feComposite operator="in" in2="blur-3"/>
      <feComposite in="SourceGraphic"/>
    </filter>
    <linearGradient id="linear-gradient-21" x1="0.5" x2="0.5" y2="1" gradientUnits="objectBoundingBox">
      <stop offset="0" stop-color="#fff"/>
      <stop offset="1" stop-color="#fff"/>
    </linearGradient>
    <filter id="clouds" x="-53.413" y="-49.43" width="142.113" height="133.63" filterUnits="userSpaceOnUse">
      <feOffset input="SourceAlpha"/>
      <feGaussianBlur stdDeviation="20" result="blur-4"/>
      <feFlood flood-color="#fff" flood-opacity="0.447"/>
      <feComposite operator="in" in2="blur-4"/>
      <feComposite in="SourceGraphic"/>
    </filter>
    <linearGradient id="linear-gradient-22" x1="0.5" x2="0.5" y2="1" gradientUnits="objectBoundingBox">
      <stop offset="0" stop-color="#f0fdff"/>
      <stop offset="1" stop-color="#65f3ff"/>
    </linearGradient>
    <clipPath id="clip-Custom_Size_1">
      <rect width="36" height="36"/>
    </clipPath>
  </defs>
  <g id="Custom_Size_1" data-name="Custom Size – 1" clip-path="url(#clip-Custom_Size_1)">
    <g id="Group_41" data-name="Group 41" transform="translate(263.83 216.83)">
      <g id="cloudy_night" data-name="cloudy night" transform="translate(-263.83 -216.83)">
        <g transform="matrix(1, 0, 0, 1, 0, 0)" filter="url(#Rectangle_18)">
          <rect id="Rectangle_18-2" data-name="Rectangle 18" width="36" height="36" rx="18" transform="translate(0 0)" fill="url(#linear-gradient)"/>
        </g>
        <g id="star" transform="translate(7.735 1.363)">
          <ellipse id="Ellipse_56" data-name="Ellipse 56" cx="0.332" cy="0.332" rx="0.332" ry="0.332" transform="translate(21.94 4.654)" opacity="0.136" fill="url(#linear-gradient-2)"/>
          <ellipse id="Ellipse_57" data-name="Ellipse 57" cx="0.499" cy="0.499" rx="0.499" ry="0.499" transform="translate(23.103 11.635)" opacity="0.173" fill="url(#linear-gradient-2)"/>
          <ellipse id="Ellipse_58" data-name="Ellipse 58" cx="0.166" cy="0.166" rx="0.166" ry="0.166" transform="translate(14.294 3.158)" opacity="0.329" fill="url(#linear-gradient-2)"/>
          <ellipse id="Ellipse_59" data-name="Ellipse 59" cx="0.748" cy="0.748" rx="0.748" ry="0.748" transform="translate(6.316 0.665)" opacity="0.103" fill="url(#linear-gradient-2)"/>
          <ellipse id="Ellipse_60" data-name="Ellipse 60" cx="0.748" cy="0.748" rx="0.748" ry="0.748" transform="translate(0 3.989)" opacity="0.103" fill="url(#linear-gradient-2)"/>
          <ellipse id="Ellipse_61" data-name="Ellipse 61" cx="0.249" cy="0.249" rx="0.249" ry="0.249" transform="translate(6.981 5.485)" opacity="0.182" fill="url(#linear-gradient-2)"/>
          <ellipse id="Ellipse_62" data-name="Ellipse 62" cx="0.914" cy="0.914" rx="0.914" ry="0.914" transform="translate(17.12 6.815)" opacity="0.108" fill="url(#linear-gradient-2)"/>
          <ellipse id="Ellipse_63" data-name="Ellipse 63" cx="0.748" cy="0.748" rx="0.748" ry="0.748" transform="translate(18.283)" opacity="0.104" fill="url(#linear-gradient-2)"/>
          <ellipse id="Ellipse_64" data-name="Ellipse 64" cx="0.249" cy="0.249" rx="0.249" ry="0.249" transform="translate(23.103 17.785)" opacity="0.286" fill="url(#linear-gradient-2)"/>
          <ellipse id="Ellipse_65" data-name="Ellipse 65" cx="0.748" cy="0.748" rx="0.748" ry="0.748" transform="translate(24.765 23.436)" opacity="0.172" fill="url(#linear-gradient-2)"/>
        </g>
        <g id="Group_40" data-name="Group 40" transform="translate(6.587 7.314)">
          <g id="Group_38" data-name="Group 38" transform="translate(0 0)">
            <g id="Group_24" data-name="Group 24" transform="translate(12.108)">
              <g id="sun" transform="translate(0)">
                <g transform="matrix(1, 0, 0, 1, -18.69, -7.31)" filter="url(#Subtraction_2)">
                  <path id="Subtraction_2-2" data-name="Subtraction 2" d="M3.816,8.916a5.059,5.059,0,0,1-2.127-.463A5.115,5.115,0,0,1,0,7.2,5.1,5.1,0,0,0,8.084,5.37,5.1,5.1,0,0,0,7.2,0,5.116,5.116,0,0,1,8.453,1.689,5.106,5.106,0,0,1,5.8,8.515,5.068,5.068,0,0,1,3.816,8.916Z" transform="matrix(-0.99, -0.1, 0.1, -0.99, 27.56, 17.11)" fill="url(#linear-gradient-12)"/>
                </g>
                <circle id="Ellipse_39" data-name="Ellipse 39" cx="5.1" cy="5.1" r="5.1" transform="translate(0.45 0.593)" fill="url(#linear-gradient-13)"/>
                <g transform="matrix(1, 0, 0, 1, -18.69, -7.31)" filter="url(#Subtraction_1)">
                  <path id="Subtraction_1-2" data-name="Subtraction 1" d="M3.816,8.916a5.059,5.059,0,0,1-2.127-.463A5.115,5.115,0,0,1,0,7.2,5.1,5.1,0,0,0,8.084,5.37,5.1,5.1,0,0,0,7.2,0,5.116,5.116,0,0,1,8.453,1.689,5.106,5.106,0,0,1,5.8,8.515,5.068,5.068,0,0,1,3.816,8.916Z" transform="translate(20.43 9.19)" fill="url(#linear-gradient-14)"/>
                </g>
              </g>
              <circle id="Ellipse_44" data-name="Ellipse 44" cx="0.359" cy="0.359" r="0.359" transform="translate(2.318 3.898)" fill="url(#linear-gradient-2)"/>
              <circle id="Ellipse_45" data-name="Ellipse 45" cx="0.718" cy="0.718" r="0.718" transform="translate(5.622 2.461)" fill="url(#linear-gradient-2)"/>
              <circle id="Ellipse_46" data-name="Ellipse 46" cx="0.575" cy="0.575" r="0.575" transform="translate(3.611 7.058)" fill="url(#linear-gradient-2)"/>
              <ellipse id="Ellipse_53" data-name="Ellipse 53" cx="0.251" cy="0.251" rx="0.251" ry="0.251" transform="translate(6.335 6.1)" opacity="0.631" fill="url(#linear-gradient-2)"/>
              <ellipse id="Ellipse_54" data-name="Ellipse 54" cx="0.502" cy="0.502" rx="0.502" ry="0.502" transform="translate(8.644 5.096)" opacity="0.631" fill="url(#linear-gradient-2)"/>
              <ellipse id="Ellipse_55" data-name="Ellipse 55" cx="0.402" cy="0.402" rx="0.402" ry="0.402" transform="translate(7.238 8.308)" opacity="0.631" fill="url(#linear-gradient-2)"/>
            </g>
            <g id="cloud" transform="translate(0 3.255)">
              <g transform="matrix(1, 0, 0, 1, -6.59, -10.57)" filter="url(#clouds)">
                <path id="clouds-2" data-name="clouds" d="M8.9,13.63q-.188,0-.371-.018-.195.018-.394.018H4.242a4.242,4.242,0,0,1-.028-8.484,5.842,5.842,0,0,1,11.575-.182,4.521,4.521,0,0,1,5.087,7.253,3.747,3.747,0,0,1-2.935,1.413Z" transform="translate(6.59 10.57)" fill="url(#linear-gradient-21)"/>
              </g>
              <path id="Subtraction_3" data-name="Subtraction 3" d="M10.031,13.63H9.489c.093,0,.189-.009.294-.018.083.008.166.013.248.016Zm-4.668,0H4.242a4.242,4.242,0,0,1-.028-8.484A5.84,5.84,0,0,1,10.013,0a5.93,5.93,0,0,1,.626.033A5.843,5.843,0,0,0,5.465,5.145a4.242,4.242,0,0,0-.1,8.482ZM17.041,4.964h0c-.017-.11-.037-.222-.06-.332a4.577,4.577,0,0,1,1.238,0,4.479,4.479,0,0,0-1.177.331Z" transform="translate(0 0)" fill="#fff"/>
            </g>
          </g>
        </g>
      </g>
      <g id="Group_39" data-name="Group 39" transform="translate(-255.089 -191.356)">
        <path id="Path_1057" data-name="Path 1057" d="M1.216,0c.19,0,.276.057.452.342a6.277,6.277,0,0,1,.764,2.346A1.216,1.216,0,0,1,0,2.688,6.567,6.567,0,0,1,.726.407C.889.109,1,0,1.216,0Z" transform="matrix(0.848, 0.53, -0.53, 0.848, 2.069, 0)" fill="url(#linear-gradient-22)"/>
        <path id="Path_1058" data-name="Path 1058" d="M1.216,0c.19,0,.276.057.452.342a6.277,6.277,0,0,1,.764,2.346A1.216,1.216,0,0,1,0,2.688,6.567,6.567,0,0,1,.726.407C.889.109,1,0,1.216,0Z" transform="matrix(0.848, 0.53, -0.53, 0.848, 7.388, 0)" fill="url(#linear-gradient-22)"/>
        <path id="Path_1059" data-name="Path 1059" d="M1.216,0c.19,0,.276.057.452.342a6.277,6.277,0,0,1,.764,2.346A1.216,1.216,0,0,1,0,2.688,6.567,6.567,0,0,1,.726.407C.889.109,1,0,1.216,0Z" transform="matrix(0.848, 0.53, -0.53, 0.848, 12.54, 0)" fill="url(#linear-gradient-22)"/>
      </g>
    </g>
  </g>
</svg>
