<svg xmlns="http://www.w3.org/2000/svg" xmlns:xlink="http://www.w3.org/1999/xlink" width="36" height="36" viewBox="0 0 36 36">
  <defs>
    <linearGradient id="linear-gradient" x1="0.872" y1="0.093" x2="0.142" y2="0.932" gradientUnits="objectBoundingBox">
      <stop offset="0" stop-color="#342e80"/>
      <stop offset="1" stop-color="#5c6ebc"/>
    </linearGradient>
    <filter id="Rectangle_18" x="-148.5" y="-98.5" width="333" height="333" filterUnits="userSpaceOnUse">
      <feOffset dy="50" input="SourceAlpha"/>
      <feGaussianBlur stdDeviation="49.5" result="blur"/>
      <feFlood flood-opacity="0.161"/>
      <feComposite operator="in" in2="blur"/>
      <feComposite in="SourceGraphic"/>
    </filter>
    <linearGradient id="linear-gradient-2" x1="0.5" x2="0.5" y2="1" gradientUnits="objectBoundingBox">
      <stop offset="0" stop-color="#fff" stop-opacity="0.2"/>
      <stop offset="1" stop-color="#fff"/>
    </linearGradient>
    <linearGradient id="linear-gradient-12" x1="0.881" y1="0.863" x2="0.24" y2="0.176" gradientUnits="objectBoundingBox">
      <stop offset="0" stop-color="#a8a8a8"/>
      <stop offset="1" stop-color="#eaeaea"/>
    </linearGradient>
    <filter id="Subtraction_2" x="-11.829" y="-21.083" width="69.842" height="69.842" filterUnits="userSpaceOnUse">
      <feOffset input="SourceAlpha"/>
      <feGaussianBlur stdDeviation="10" result="blur-2"/>
      <feFlood flood-color="#fff"/>
      <feComposite operator="in" in2="blur-2"/>
      <feComposite in="SourceGraphic"/>
    </filter>
    <linearGradient id="linear-gradient-13" x1="0.588" x2="0.316" y2="0.826" gradientUnits="objectBoundingBox">
      <stop offset="0" stop-color="#f8f8f8"/>
      <stop offset="1" stop-color="#b7b7b7"/>
    </linearGradient>
    <linearGradient id="linear-gradient-14" x1="0.184" y1="0.127" x2="0.839" y2="0.848" gradientUnits="objectBoundingBox">
      <stop offset="0" stop-color="#fff"/>
      <stop offset="1" stop-color="#f2f2f2"/>
    </linearGradient>
    <filter id="Subtraction_1" x="-10.087" y="-19.196" width="68.955" height="68.955" filterUnits="userSpaceOnUse">
      <feOffset input="SourceAlpha"/>
      <feGaussianBlur stdDeviation="10" result="blur-3"/>
      <feFlood flood-color="#fff"/>
      <feComposite operator="in" in2="blur-3"/>
      <feComposite in="SourceGraphic"/>
    </filter>
    <linearGradient id="linear-gradient-21" x1="0.5" x2="0.5" y2="1" gradientUnits="objectBoundingBox">
      <stop offset="0" stop-color="#fff"/>
      <stop offset="1" stop-color="#fff"/>
    </linearGradient>
    <filter id="clouds" x="-53.99" y="-47.813" width="142.21" height="133.689" filterUnits="userSpaceOnUse">
      <feOffset input="SourceAlpha"/>
      <feGaussianBlur stdDeviation="20" result="blur-4"/>
      <feFlood flood-color="#fff" flood-opacity="0.447"/>
      <feComposite operator="in" in2="blur-4"/>
      <feComposite in="SourceGraphic"/>
    </filter>
    <clipPath id="clip-Custom_Size_1">
      <rect width="36" height="36"/>
    </clipPath>
  </defs>
  <g id="Custom_Size_1" data-name="Custom Size – 1" clip-path="url(#clip-Custom_Size_1)">
    <g id="cloudy_night" data-name="cloudy night" transform="translate(-492 -184)">
      <g transform="matrix(1, 0, 0, 1, 492, 184)" filter="url(#Rectangle_18)">
        <g id="Rectangle_18-2" data-name="Rectangle 18" stroke="#707070" stroke-width="1" fill="url(#linear-gradient)">
          <rect width="36" height="36" rx="18" stroke="none"/>
          <rect x="0.5" y="0.5" width="35" height="35" rx="17.5" fill="none"/>
        </g>
      </g>
      <g id="star" transform="translate(499.837 185.437)">
        <g id="Ellipse_56" data-name="Ellipse 56" transform="translate(22.036 4.674)" stroke="#707070" stroke-width="1" opacity="0.136" fill="url(#linear-gradient-2)">
          <ellipse cx="0.334" cy="0.334" rx="0.334" ry="0.334" stroke="none"/>
          <ellipse cx="0.334" cy="0.334" rx="0.166" ry="0.166" fill="none"/>
        </g>
        <g id="Ellipse_57" data-name="Ellipse 57" transform="translate(23.205 11.686)" stroke="#707070" stroke-width="1" opacity="0.173" fill="url(#linear-gradient-2)">
          <ellipse cx="0.501" cy="0.501" rx="0.501" ry="0.501" stroke="none"/>
          <ellipse cx="0.501" cy="0.501" rx="0.001" ry="0.001" fill="none"/>
        </g>
        <g id="Ellipse_58" data-name="Ellipse 58" transform="translate(14.357 3.172)" stroke="#707070" stroke-width="1" opacity="0.329" fill="url(#linear-gradient-2)">
          <ellipse cx="0.167" cy="0.167" rx="0.167" ry="0.167" stroke="none"/>
          <ellipse cx="0.167" cy="0.167" rx="0.333" ry="0.333" fill="none"/>
        </g>
        <g id="Ellipse_59" data-name="Ellipse 59" transform="translate(6.344 0.668)" stroke="#707070" stroke-width="1" opacity="0.103" fill="url(#linear-gradient-2)">
          <ellipse cx="0.751" cy="0.751" rx="0.751" ry="0.751" stroke="none"/>
          <ellipse cx="0.751" cy="0.751" rx="0.251" ry="0.251" fill="none"/>
        </g>
        <g id="Ellipse_60" data-name="Ellipse 60" transform="translate(0 4.007)" stroke="#707070" stroke-width="1" opacity="0.103" fill="url(#linear-gradient-2)">
          <ellipse cx="0.751" cy="0.751" rx="0.751" ry="0.751" stroke="none"/>
          <ellipse cx="0.751" cy="0.751" rx="0.251" ry="0.251" fill="none"/>
        </g>
        <g id="Ellipse_61" data-name="Ellipse 61" transform="translate(7.012 5.509)" stroke="#707070" stroke-width="1" opacity="0.182" fill="url(#linear-gradient-2)">
          <ellipse cx="0.25" cy="0.25" rx="0.25" ry="0.25" stroke="none"/>
          <ellipse cx="0.25" cy="0.25" rx="0.25" ry="0.25" fill="none"/>
        </g>
        <g id="Ellipse_62" data-name="Ellipse 62" transform="translate(17.195 6.845)" stroke="#707070" stroke-width="1" opacity="0.108" fill="url(#linear-gradient-2)">
          <ellipse cx="0.918" cy="0.918" rx="0.918" ry="0.918" stroke="none"/>
          <ellipse cx="0.918" cy="0.918" rx="0.418" ry="0.418" fill="none"/>
        </g>
        <g id="Ellipse_63" data-name="Ellipse 63" transform="translate(18.364 0)" stroke="#707070" stroke-width="1" opacity="0.104" fill="url(#linear-gradient-2)">
          <ellipse cx="0.751" cy="0.751" rx="0.751" ry="0.751" stroke="none"/>
          <ellipse cx="0.751" cy="0.751" rx="0.251" ry="0.251" fill="none"/>
        </g>
        <g id="Ellipse_64" data-name="Ellipse 64" transform="translate(23.205 17.863)" stroke="#707070" stroke-width="1" opacity="0.286" fill="url(#linear-gradient-2)">
          <ellipse cx="0.25" cy="0.25" rx="0.25" ry="0.25" stroke="none"/>
          <ellipse cx="0.25" cy="0.25" rx="0.25" ry="0.25" fill="none"/>
        </g>
        <g id="Ellipse_65" data-name="Ellipse 65" transform="translate(24.874 23.539)" stroke="#707070" stroke-width="1" opacity="0.172" fill="url(#linear-gradient-2)">
          <ellipse cx="0.751" cy="0.751" rx="0.751" ry="0.751" stroke="none"/>
          <ellipse cx="0.751" cy="0.751" rx="0.251" ry="0.251" fill="none"/>
        </g>
      </g>
      <g id="Group_38" data-name="Group 38" transform="translate(498.01 192.917)">
        <g id="Group_24" data-name="Group 24" transform="translate(12.161 0)">
          <g id="sun" transform="translate(0)">
            <g transform="matrix(1, 0, 0, 1, -18.17, -8.92)" filter="url(#Subtraction_2)">
              <g id="Subtraction_2-2" data-name="Subtraction 2" transform="matrix(-0.99, -0.1, 0.1, -0.99, 27.08, 18.76)" fill="url(#linear-gradient-12)">
                <path d="M3.833,8.955A5.081,5.081,0,0,1,1.7,8.49,5.137,5.137,0,0,1,0,7.231,5.126,5.126,0,0,0,8.12,5.393,5.118,5.118,0,0,0,7.232,0,5.139,5.139,0,0,1,8.49,1.7,5.128,5.128,0,0,1,5.827,8.552,5.091,5.091,0,0,1,3.833,8.955Z" stroke="none"/>
                <path d="M 3.832554340362549 8.954936981201172 C 3.087044477462769 8.954936981201172 2.368304491043091 8.798396110534668 1.696314454078674 8.489676475524902 C 1.374014377593994 8.341616630554199 1.06581437587738 8.158956527709961 0.7802744507789612 7.946776390075684 C 0.4969844222068787 7.736266613006592 0.2344644367694855 7.495566368103027 4.429931777849561e-06 7.231376647949219 C 0.458674430847168 7.638596534729004 0.9800244569778442 7.957076549530029 1.549774408340454 8.177786827087402 C 2.139304399490356 8.406147003173828 2.761704444885254 8.521936416625977 3.399684429168701 8.521936416625977 C 4.09123420715332 8.521936416625977 4.762104511260986 8.386487007141113 5.393664360046387 8.119366645812988 C 6.003664493560791 7.86134672164917 6.551514625549316 7.491976737976074 7.021974563598633 7.021516799926758 C 7.492444515228271 6.551046371459961 7.861814498901367 6.003206729888916 8.119824409484863 5.393196582794189 C 8.386954307556152 4.761646747589111 8.522404670715332 4.090776443481445 8.522404670715332 3.399226665496826 C 8.522404670715332 2.761436700820923 8.406634330749512 2.139146566390991 8.178304672241211 1.549646615982056 C 7.957764625549316 0.9802165627479553 7.639464378356934 0.4588365852832794 7.232244491577148 -3.416748086237931e-06 C 7.496684551239014 0.2347765862941742 7.7372145652771 0.4973665773868561 7.947364330291748 0.7802665829658508 C 8.15948486328125 1.06580662727356 8.342094421386719 1.373976588249207 8.490114212036133 1.696236610412598 C 8.798764228820801 2.368196487426758 8.955264091491699 3.086806535720825 8.955264091491699 3.832096576690674 C 8.955264091491699 4.52367639541626 8.81982421875 5.194576740264893 8.552714347839355 5.826136589050293 C 8.294704437255859 6.436166763305664 7.925344467163086 6.984026432037354 7.454894542694092 7.454496383666992 C 6.984434604644775 7.924966812133789 6.436594486236572 8.294336318969727 5.826584339141846 8.552356719970703 C 5.195024490356445 8.819486618041992 4.524134635925293 8.954936981201172 3.832554340362549 8.954936981201172 Z" stroke="none" fill="#707070"/>
              </g>
            </g>
            <g id="Ellipse_39" data-name="Ellipse 39" transform="translate(0.452 0.596)" stroke="#707070" stroke-width="1" fill="url(#linear-gradient-13)">
              <circle cx="5.123" cy="5.123" r="5.123" stroke="none"/>
              <circle cx="5.123" cy="5.123" r="4.623" fill="none"/>
            </g>
            <g transform="matrix(1, 0, 0, 1, -18.17, -8.92)" filter="url(#Subtraction_1)">
              <g id="Subtraction_1-2" data-name="Subtraction 1" transform="translate(19.91 10.8)" fill="url(#linear-gradient-14)">
                <path d="M3.833,8.955A5.081,5.081,0,0,1,1.7,8.49,5.137,5.137,0,0,1,0,7.231,5.126,5.126,0,0,0,8.12,5.393,5.118,5.118,0,0,0,7.232,0,5.139,5.139,0,0,1,8.49,1.7,5.128,5.128,0,0,1,5.827,8.552,5.091,5.091,0,0,1,3.833,8.955Z" stroke="none"/>
                <path d="M 3.832554340362549 8.954936981201172 C 3.087044477462769 8.954936981201172 2.368304491043091 8.798396110534668 1.696314454078674 8.489676475524902 C 1.374014377593994 8.341616630554199 1.06581437587738 8.158956527709961 0.7802744507789612 7.946776390075684 C 0.4969844222068787 7.736266613006592 0.2344644367694855 7.495566368103027 4.429931777849561e-06 7.231376647949219 C 0.458674430847168 7.638596534729004 0.9800244569778442 7.957076549530029 1.549774408340454 8.177786827087402 C 2.139304399490356 8.406147003173828 2.761704444885254 8.521936416625977 3.399684429168701 8.521936416625977 C 4.09123420715332 8.521936416625977 4.762104511260986 8.386487007141113 5.393664360046387 8.119366645812988 C 6.003664493560791 7.86134672164917 6.551514625549316 7.491976737976074 7.021974563598633 7.021516799926758 C 7.492444515228271 6.551046371459961 7.861814498901367 6.003206729888916 8.119824409484863 5.393196582794189 C 8.386954307556152 4.761646747589111 8.522404670715332 4.090776443481445 8.522404670715332 3.399226665496826 C 8.522404670715332 2.761436700820923 8.406634330749512 2.139146566390991 8.178304672241211 1.549646615982056 C 7.957764625549316 0.9802165627479553 7.639464378356934 0.4588365852832794 7.232244491577148 -3.416748086237931e-06 C 7.496684551239014 0.2347765862941742 7.7372145652771 0.4973665773868561 7.947364330291748 0.7802665829658508 C 8.15948486328125 1.06580662727356 8.342094421386719 1.373976588249207 8.490114212036133 1.696236610412598 C 8.798764228820801 2.368196487426758 8.955264091491699 3.086806535720825 8.955264091491699 3.832096576690674 C 8.955264091491699 4.52367639541626 8.81982421875 5.194576740264893 8.552714347839355 5.826136589050293 C 8.294704437255859 6.436166763305664 7.925344467163086 6.984026432037354 7.454894542694092 7.454496383666992 C 6.984434604644775 7.924966812133789 6.436594486236572 8.294336318969727 5.826584339141846 8.552356719970703 C 5.195024490356445 8.819486618041992 4.524134635925293 8.954936981201172 3.832554340362549 8.954936981201172 Z" stroke="none" fill="#707070"/>
              </g>
            </g>
          </g>
          <circle id="Ellipse_44" data-name="Ellipse 44" cx="0.361" cy="0.361" r="0.361" transform="translate(2.328 3.915)" fill="url(#linear-gradient-2)"/>
          <circle id="Ellipse_45" data-name="Ellipse 45" cx="0.722" cy="0.722" r="0.722" transform="translate(5.647 2.472)" fill="url(#linear-gradient-2)"/>
          <path id="Path_2" data-name="Path 2" d="M.577,0A.577.577,0,1,1,0,.577.577.577,0,0,1,.577,0Z" transform="translate(3.627 7.09)" fill="url(#linear-gradient-2)"/>
          <ellipse id="Ellipse_53" data-name="Ellipse 53" cx="0.252" cy="0.252" rx="0.252" ry="0.252" transform="translate(6.363 6.127)" opacity="0.631" fill="url(#linear-gradient-2)"/>
          <path id="Path_1" data-name="Path 1" d="M.5,0A.5.5,0,1,1,0,.5.5.5,0,0,1,.5,0Z" transform="translate(8.682 5.118)" opacity="0.631" fill="url(#linear-gradient-2)"/>
          <g id="Ellipse_55" data-name="Ellipse 55" transform="translate(7.27 8.345)" stroke="#707070" stroke-width="1" opacity="0.631" fill="url(#linear-gradient-2)">
            <ellipse cx="0.403" cy="0.403" rx="0.403" ry="0.403" stroke="none"/>
            <ellipse cx="0.403" cy="0.403" rx="0.097" ry="0.097" fill="none"/>
          </g>
        </g>
        <g id="cloud" transform="translate(0 3.27)">
          <g transform="matrix(1, 0, 0, 1, -6.01, -12.19)" filter="url(#clouds)">
            <g id="clouds-2" data-name="clouds" transform="translate(6.01 12.19)" fill="url(#linear-gradient-21)">
              <path d="M 18.01980018615723 13.18900012969971 L 8.939701080322266 13.18900012969971 C 8.832250595092773 13.18900012969971 8.723450660705566 13.18368053436279 8.616331100463867 13.17319011688232 L 8.569070816040039 13.16856002807617 L 8.521770477294922 13.1729097366333 C 8.405810356140137 13.18358993530273 8.288130760192871 13.18900012969971 8.172000885009766 13.18900012969971 L 4.260600566864014 13.18900012969971 C 2.187000513076782 13.18900012969971 0.5000006556510925 11.5019998550415 0.5000006556510925 9.428400039672852 C 0.5000006556510925 7.369240283966064 2.175470590591431 5.682720184326172 4.23490047454834 5.668869972229004 L 4.676080703735352 5.665900230407715 L 4.728060722351074 5.227789878845215 C 5.047820568084717 2.532510042190552 7.338980674743652 0.5000000596046448 10.0575008392334 0.5000000596046448 C 11.34996032714844 0.5000000596046448 12.59865093231201 0.9660200476646423 13.57356071472168 1.812220096588135 C 14.53901100158691 2.65021014213562 15.17500019073486 3.803689956665039 15.36436080932617 5.060180187225342 L 15.46141052246094 5.704110145568848 L 16.05844116210938 5.444079875946045 C 16.56771087646484 5.222270011901855 17.11012077331543 5.109799861907959 17.67060089111328 5.109799861907959 C 19.89804077148438 5.109799861907959 21.71020126342773 6.92195987701416 21.71020126342773 9.149399757385254 C 21.71020126342773 10.18747997283936 21.31723976135254 11.17397022247314 20.60370063781738 11.92714977264404 L 20.58926010131836 11.94237995147705 L 20.57615089416504 11.95878028869629 C 19.95104026794434 12.74059963226318 19.01929092407227 13.18900012969971 18.01980018615723 13.18900012969971 Z" stroke="none"/>
              <path d="M 18.01980018615723 12.68900012969971 C 18.86651039123535 12.68900012969971 19.65593147277832 12.30904006958008 20.18563079833984 11.64653968811035 L 20.21185111999512 11.61375045776367 L 20.24072074890137 11.58327007293701 C 20.86590003967285 10.92337036132812 21.21020126342773 10.05900001525879 21.21020126342773 9.149399757385254 C 21.21020126342773 7.197659969329834 19.62234115600586 5.609799861907959 17.67060089111328 5.609799861907959 C 17.17924118041992 5.609799861907959 16.70400047302246 5.708270072937012 16.25809097290039 5.902490139007568 L 15.064040184021 6.422550201416016 L 14.86995029449463 5.134700298309326 C 14.69829082489014 3.995740175247192 14.12150096893311 2.949900150299072 13.24581050872803 2.189820051193237 C 12.36184024810791 1.422550082206726 11.2295503616333 1.00000011920929 10.0575008392334 1.00000011920929 C 7.59221076965332 1.00000011920929 5.514510631561279 2.842880010604858 5.224580764770508 5.286690235137939 L 5.120620727539062 6.162919998168945 L 4.23827075958252 6.168859958648682 C 2.452680587768555 6.180870056152344 1.000000596046448 7.64309024810791 1.000000596046448 9.428400039672852 C 1.000000596046448 11.22630023956299 2.462700605392456 12.68900012969971 4.260600566864014 12.68900012969971 L 8.172000885009766 12.68900012969971 C 8.272891044616699 12.68900012969971 8.375150680541992 12.68430042266846 8.475950241088867 12.67502021789551 L 8.570530891418457 12.66631031036377 L 8.665070533752441 12.67557048797607 C 8.756051063537598 12.68447971343994 8.848450660705566 12.68900012969971 8.939701080322266 12.68900012969971 L 18.01980018615723 12.68900012969971 M 18.01980018615723 13.68900012969971 L 8.939701080322266 13.68900012969971 C 8.81411075592041 13.68900012969971 8.690031051635742 13.68280029296875 8.567600250244141 13.67080974578857 C 8.43733024597168 13.68280029296875 8.305400848388672 13.68900012969971 8.172000885009766 13.68900012969971 L 4.260600566864014 13.68900012969971 C 1.907100677490234 13.68900012969971 6.317138740996597e-07 11.78190040588379 6.317138740996597e-07 9.428400039672852 C 6.317138740996597e-07 7.085559844970703 1.891530632972717 5.184619903564453 4.231540679931641 5.168879985809326 C 4.57688045501709 2.258020162582397 7.053820610046387 6.484984993448961e-08 10.0575008392334 6.484984993448961e-08 C 12.99790096282959 6.484984993448961e-08 15.43349075317383 2.16375994682312 15.85878086090088 4.98567008972168 C 16.41378974914551 4.743939876556396 17.026611328125 4.609799861907959 17.67060089111328 4.609799861907959 C 20.17800140380859 4.609799861907959 22.21020126342773 6.642000198364258 22.21020126342773 9.149399757385254 C 22.21020126342773 10.35871982574463 21.7374210357666 11.45746040344238 20.96667098999023 12.27101993560791 C 20.2756404876709 13.13529014587402 19.21236038208008 13.68900012969971 18.01980018615723 13.68900012969971 Z" stroke="none" fill="#707070"/>
            </g>
          </g>
          <g id="Subtraction_3" data-name="Subtraction 3" transform="translate(0 0)" fill="#fff">
            <path d="M 1.496956825256348 11.97621822357178 C 0.8783819675445557 11.30573844909668 0.4999963641166687 10.41039848327637 0.4999963641166687 9.428400039672852 C 0.4999963641166687 8.446972846984863 0.8807508945465088 7.550130367279053 1.502347230911255 6.878700256347656 C 1.030936717987061 7.616960048675537 0.7572963237762451 8.492343902587891 0.7572963237762451 9.428400039672852 C 0.7572963237762451 10.3421630859375 1.01552140712738 11.22012901306152 1.496956825256348 11.97621822357178 Z M 4.812887191772461 4.721066474914551 C 5.010541439056396 3.808041334152222 5.438429832458496 2.987099170684814 6.029866695404053 2.317251920700073 C 5.549338817596436 3.033210039138794 5.216049671173096 3.842569589614868 5.056673526763916 4.690962791442871 C 4.974863052368164 4.698921680450439 4.893454074859619 4.708985805511475 4.812887191772461 4.721066474914551 Z" stroke="none"/>
            <path d="M 10.07422637939453 13.68900012969971 L 9.528726577758789 13.68900012969971 C 9.62282657623291 13.68560028076172 9.722316741943359 13.68021011352539 9.824396133422852 13.67100048065186 C 9.907596588134766 13.67893981933594 9.991606712341309 13.6843204498291 10.07425594329834 13.6870002746582 L 10.07422637939453 13.68900012969971 Z M 5.386416435241699 13.68900012969971 L 4.26059627532959 13.68900012969971 C 1.911296367645264 13.68900012969971 -3.649902282631956e-06 11.77770042419434 -3.649902282631956e-06 9.428400039672852 C -3.649902282631956e-06 7.095749855041504 1.89837634563446 5.184850215911865 4.231796264648438 5.168700218200684 C 4.580716133117676 2.222440004348755 7.085646152496338 6.484984993448961e-08 10.05749607086182 6.484984993448961e-08 C 10.26679611206055 6.484984993448961e-08 10.47821617126465 0.01121006440371275 10.68587589263916 0.03333006426692009 C 9.374306678771973 0.1731500625610352 8.132606506347656 0.7626700401306152 7.189516544342041 1.695280075073242 C 6.247976303100586 2.626369953155518 5.644096374511719 3.859920024871826 5.489096164703369 5.168700218200684 C 3.15523624420166 5.184860229492188 1.257296323776245 7.095360279083252 1.257296323776245 9.428400039672852 C 1.257296323776245 10.54170036315918 1.685716390609741 11.59562015533447 2.463626384735107 12.39601039886475 C 3.239896297454834 13.19472026824951 4.277916431427002 13.65320014953613 5.386446475982666 13.6870002746582 L 5.386416435241699 13.68900012969971 Z M 17.11619567871094 4.986000061035156 L 17.11599540710449 4.984710216522217 C 17.0992259979248 4.873690128326416 17.07892608642578 4.761469841003418 17.0556468963623 4.651180267333984 C 17.26141548156738 4.62332010269165 17.46802711486816 4.609799861907959 17.67059707641602 4.609799861907959 C 17.88084602355957 4.609799861907959 18.0923957824707 4.624340057373047 18.29939651489258 4.65300989151001 C 17.89332580566406 4.709239959716797 17.49564552307129 4.820430278778076 17.11738586425781 4.985479831695557 L 17.11619567871094 4.986000061035156 Z" stroke="none" fill="#707070"/>
          </g>
        </g>
      </g>
    </g>
  </g>
</svg>
