<svg xmlns="http://www.w3.org/2000/svg" xmlns:xlink="http://www.w3.org/1999/xlink" width="36" height="36" viewBox="0 0 36 36">
  <defs>
    <linearGradient id="linear-gradient" x1="0.872" y1="0.093" x2="0.142" y2="0.932" gradientUnits="objectBoundingBox">
      <stop offset="0" stop-color="#7d5dff"/>
      <stop offset="1" stop-color="#29deff"/>
    </linearGradient>
    <filter id="Rectangle_11" x="-148.5" y="-98.5" width="333" height="333" filterUnits="userSpaceOnUse">
      <feOffset dy="50" input="SourceAlpha"/>
      <feGaussianBlur stdDeviation="49.5" result="blur"/>
      <feFlood flood-opacity="0.161"/>
      <feComposite operator="in" in2="blur"/>
      <feComposite in="SourceGraphic"/>
    </filter>
    <linearGradient id="linear-gradient-2" x1="0.881" y1="0.863" x2="0.24" y2="0.176" gradientUnits="objectBoundingBox">
      <stop offset="0" stop-color="#facd0b"/>
      <stop offset="1" stop-color="#ffb7a0"/>
    </linearGradient>
    <filter id="Subtraction_2" x="-10.517" y="-8.786" width="67.012" height="67.012" filterUnits="userSpaceOnUse">
      <feOffset dy="10" input="SourceAlpha"/>
      <feGaussianBlur stdDeviation="10" result="blur-2"/>
      <feFlood flood-color="#ffddbc"/>
      <feComposite operator="in" in2="blur-2"/>
      <feComposite in="SourceGraphic"/>
    </filter>
    <linearGradient id="linear-gradient-3" x1="0.184" y1="0.127" x2="0.839" y2="0.848" gradientUnits="objectBoundingBox">
      <stop offset="0" stop-color="#ffdb45"/>
      <stop offset="1" stop-color="#ffa68b"/>
    </linearGradient>
    <filter id="Ellipse_39" x="-10.195" y="-8.361" width="67.299" height="67.299" filterUnits="userSpaceOnUse">
      <feOffset dy="10" input="SourceAlpha"/>
      <feGaussianBlur stdDeviation="10" result="blur-3"/>
      <feFlood flood-color="#ffddbc"/>
      <feComposite operator="in" in2="blur-3"/>
      <feComposite in="SourceGraphic"/>
    </filter>
    <linearGradient id="linear-gradient-4" x1="0.184" y1="0.127" x2="0.839" y2="0.848" gradientUnits="objectBoundingBox">
      <stop offset="0" stop-color="#ffe05d"/>
      <stop offset="1" stop-color="#ffbeaa"/>
    </linearGradient>
    <filter id="Subtraction_1" x="-9.276" y="-7.442" width="66.38" height="66.38" filterUnits="userSpaceOnUse">
      <feOffset dy="10" input="SourceAlpha"/>
      <feGaussianBlur stdDeviation="10" result="blur-4"/>
      <feFlood flood-color="#ffddbc"/>
      <feComposite operator="in" in2="blur-4"/>
      <feComposite in="SourceGraphic"/>
    </filter>
    <linearGradient id="linear-gradient-5" x1="0.5" x2="0.5" y2="1" gradientUnits="objectBoundingBox">
      <stop offset="0" stop-color="#fff" stop-opacity="0.2"/>
      <stop offset="1" stop-color="#fff"/>
    </linearGradient>
    <linearGradient id="linear-gradient-8" x1="0.5" x2="0.5" y2="1" gradientUnits="objectBoundingBox">
      <stop offset="0" stop-color="#fff"/>
      <stop offset="1" stop-color="#f2f2f2"/>
    </linearGradient>
    <filter id="clouds" x="-54.677" y="-46.835" width="141.732" height="133.395" filterUnits="userSpaceOnUse">
      <feOffset input="SourceAlpha"/>
      <feGaussianBlur stdDeviation="20" result="blur-5"/>
      <feFlood flood-color="#fff" flood-opacity="0.2"/>
      <feComposite operator="in" in2="blur-5"/>
      <feComposite in="SourceGraphic"/>
    </filter>
    <clipPath id="clip-Custom_Size_1">
      <rect width="36" height="36"/>
    </clipPath>
  </defs>
  <g id="Custom_Size_1" data-name="Custom Size – 1" clip-path="url(#clip-Custom_Size_1)">
    <g id="Cloudy_sunny" data-name="Cloudy sunny" transform="translate(-0.269 0.125)">
      <g transform="matrix(1, 0, 0, 1, 0.27, -0.12)" filter="url(#Rectangle_11)">
        <g id="Rectangle_11-2" data-name="Rectangle 11" stroke="#707070" stroke-width="1" fill="url(#linear-gradient)">
          <rect width="36" height="36" rx="18" stroke="none"/>
          <rect x="0.5" y="0.5" width="35" height="35" rx="17.5" fill="none"/>
        </g>
      </g>
      <g id="Group_27" data-name="Group 27" transform="translate(5.592 7.813)">
        <g id="Group_25" data-name="Group 25" transform="translate(10.781)">
          <g id="sun" transform="translate(0)">
            <g transform="matrix(1, 0, 0, 1, -16.1, -7.94)" filter="url(#Subtraction_2)">
              <g id="Subtraction_2-2" data-name="Subtraction 2" transform="matrix(-0.99, -0.1, 0.1, -0.99, 25.83, 18.23)" fill="url(#linear-gradient-2)">
                <path d="M2.731,6.38a3.62,3.62,0,0,1-1.522-.331A3.66,3.66,0,0,1,0,5.152a3.652,3.652,0,0,0,5.785-1.31A3.646,3.646,0,0,0,5.153,0a3.661,3.661,0,0,1,.9,1.208,3.654,3.654,0,0,1-1.9,4.885A3.627,3.627,0,0,1,2.731,6.38Z" stroke="none"/>
                <path d="M 2.730522155761719 6.379981994628906 C 2.199382066726685 6.379981994628906 1.687312126159668 6.268462181091309 1.208542108535767 6.048511981964111 C 0.9789221286773682 5.94302225112915 0.7593520879745483 5.812882423400879 0.5559121370315552 5.661712169647217 C 0.3540821075439453 5.511742115020752 0.1670421212911606 5.34025239944458 2.113952632498695e-06 5.152032375335693 C 0.3267821073532104 5.44215202331543 0.6982221007347107 5.66906213760376 1.104152083396912 5.826302051544189 C 1.524162173271179 5.989002227783203 1.967592120170593 6.071492195129395 2.422122001647949 6.071492195129395 C 2.914822101593018 6.071492195129395 3.392792224884033 5.974992275238037 3.842742204666138 5.784682273864746 C 4.277342319488525 5.600852012634277 4.667662143707275 5.337692260742188 5.002841949462891 5.002511978149414 C 5.338022232055664 4.667322158813477 5.601181983947754 4.277012348175049 5.785012245178223 3.842412233352661 C 5.975332260131836 3.392452239990234 6.071822166442871 2.914492130279541 6.071822166442871 2.421792268753052 C 6.071822166442871 1.967402219772339 5.989342212677002 1.524052143096924 5.826672077178955 1.104052186012268 C 5.66954231262207 0.6983621716499329 5.442771911621094 0.3269021809101105 5.152652263641357 2.189407268815557e-06 C 5.341052055358887 0.1672721952199936 5.51242208480835 0.3543521761894226 5.662142276763916 0.5559021830558777 C 5.813261985778809 0.7593321800231934 5.943362236022949 0.9789021611213684 6.048821926116943 1.208492159843445 C 6.268722057342529 1.687232136726379 6.380222320556641 2.199212074279785 6.380222320556641 2.730192184448242 C 6.380222320556641 3.222922086715698 6.283731937408447 3.700902223587036 6.093421936035156 4.150862216949463 C 5.909602165222168 4.585482120513916 5.646451950073242 4.975802421569824 5.311272144317627 5.310992240905762 C 4.976092338562012 5.646182060241699 4.585782051086426 5.909342288970947 4.151172161102295 6.093172073364258 C 3.70122218132019 6.283482074737549 3.223242044448853 6.379981994628906 2.730522155761719 6.379981994628906 Z" stroke="none" fill="#707070"/>
              </g>
            </g>
            <g transform="matrix(1, 0, 0, 1, -16.1, -7.94)" filter="url(#Ellipse_39)">
              <g id="Ellipse_39-2" data-name="Ellipse 39" transform="translate(19.81 11.64)" stroke="#707070" stroke-width="1" fill="url(#linear-gradient-3)">
                <circle cx="3.65" cy="3.65" r="3.65" stroke="none"/>
                <circle cx="3.65" cy="3.65" r="3.15" fill="none"/>
              </g>
            </g>
            <g transform="matrix(1, 0, 0, 1, -16.1, -7.94)" filter="url(#Subtraction_1)">
              <g id="Subtraction_1-2" data-name="Subtraction 1" transform="translate(20.72 12.56)" fill="url(#linear-gradient-4)">
                <path d="M2.731,6.38a3.62,3.62,0,0,1-1.522-.331A3.66,3.66,0,0,1,0,5.152a3.652,3.652,0,0,0,5.785-1.31A3.646,3.646,0,0,0,5.153,0a3.661,3.661,0,0,1,.9,1.208,3.654,3.654,0,0,1-1.9,4.885A3.627,3.627,0,0,1,2.731,6.38Z" stroke="none"/>
                <path d="M 2.730522155761719 6.379981994628906 C 2.199382066726685 6.379981994628906 1.687312126159668 6.268462181091309 1.208542108535767 6.048511981964111 C 0.9789221286773682 5.94302225112915 0.7593520879745483 5.812882423400879 0.5559121370315552 5.661712169647217 C 0.3540821075439453 5.511742115020752 0.1670421212911606 5.34025239944458 2.113952632498695e-06 5.152032375335693 C 0.3267821073532104 5.44215202331543 0.6982221007347107 5.66906213760376 1.104152083396912 5.826302051544189 C 1.524162173271179 5.989002227783203 1.967592120170593 6.071492195129395 2.422122001647949 6.071492195129395 C 2.914822101593018 6.071492195129395 3.392792224884033 5.974992275238037 3.842742204666138 5.784682273864746 C 4.277342319488525 5.600852012634277 4.667662143707275 5.337692260742188 5.002841949462891 5.002511978149414 C 5.338022232055664 4.667322158813477 5.601181983947754 4.277012348175049 5.785012245178223 3.842412233352661 C 5.975332260131836 3.392452239990234 6.071822166442871 2.914492130279541 6.071822166442871 2.421792268753052 C 6.071822166442871 1.967402219772339 5.989342212677002 1.524052143096924 5.826672077178955 1.104052186012268 C 5.66954231262207 0.6983621716499329 5.442771911621094 0.3269021809101105 5.152652263641357 2.189407268815557e-06 C 5.341052055358887 0.1672721952199936 5.51242208480835 0.3543521761894226 5.662142276763916 0.5559021830558777 C 5.813261985778809 0.7593321800231934 5.943362236022949 0.9789021611213684 6.048821926116943 1.208492159843445 C 6.268722057342529 1.687232136726379 6.380222320556641 2.199212074279785 6.380222320556641 2.730192184448242 C 6.380222320556641 3.222922086715698 6.283731937408447 3.700902223587036 6.093421936035156 4.150862216949463 C 5.909602165222168 4.585482120513916 5.646451950073242 4.975802421569824 5.311272144317627 5.310992240905762 C 4.976092338562012 5.646182060241699 4.585782051086426 5.909342288970947 4.151172161102295 6.093172073364258 C 3.70122218132019 6.283482074737549 3.223242044448853 6.379981994628906 2.730522155761719 6.379981994628906 Z" stroke="none" fill="#707070"/>
              </g>
            </g>
            <g id="Rectangle_3" data-name="Rectangle 3" transform="translate(0 6.888)" fill="#ffdc4b" stroke="#707070" stroke-width="1">
              <rect width="1.645" height="1.028" rx="0.514" stroke="none"/>
              <rect x="0.5" y="0.5" width="0.645" height="0.028" rx="0.014" fill="none"/>
            </g>
            <g id="Rectangle_4" data-name="Rectangle 4" transform="translate(7.916) rotate(90)" fill="#ffdc4b" stroke="#707070" stroke-width="1">
              <rect width="1.645" height="1.028" rx="0.514" stroke="none"/>
              <rect x="0.5" y="0.5" width="0.645" height="0.028" rx="0.014" fill="none"/>
            </g>
            <g id="Rectangle_5" data-name="Rectangle 5" transform="translate(13.057 6.888)" fill="#ffdc4b" stroke="#707070" stroke-width="1">
              <rect width="1.645" height="1.028" rx="0.514" stroke="none"/>
              <rect x="0.5" y="0.5" width="0.645" height="0.028" rx="0.014" fill="none"/>
            </g>
            <g id="Rectangle_6" data-name="Rectangle 6" transform="translate(2.43 1.909) rotate(45)" fill="#ffdc4b" stroke="#707070" stroke-width="1">
              <rect width="1.645" height="1.028" rx="0.514" stroke="none"/>
              <rect x="0.5" y="0.5" width="0.645" height="0.028" rx="0.014" fill="none"/>
            </g>
            <g id="Rectangle_7" data-name="Rectangle 7" transform="translate(7.916 13.057) rotate(90)" fill="#ffdc4b" stroke="#707070" stroke-width="1">
              <rect width="1.645" height="1.028" rx="0.514" stroke="none"/>
              <rect x="0.5" y="0.5" width="0.645" height="0.028" rx="0.014" fill="none"/>
            </g>
            <g id="Rectangle_8" data-name="Rectangle 8" transform="translate(12.999 2.636) rotate(135)" fill="#ffdc4b" stroke="#707070" stroke-width="1">
              <rect width="1.645" height="1.028" rx="0.514" stroke="none"/>
              <rect x="0.5" y="0.5" width="0.645" height="0.028" rx="0.014" fill="none"/>
            </g>
            <g id="Rectangle_9" data-name="Rectangle 9" transform="translate(11.72 11.096) rotate(45)" fill="#ffdc4b" stroke="#707070" stroke-width="1">
              <rect width="1.542" height="1.028" rx="0.514" stroke="none"/>
              <rect x="0.5" y="0.5" width="0.542" height="0.028" rx="0.014" fill="none"/>
            </g>
            <g id="Rectangle_10" data-name="Rectangle 10" transform="translate(3.781 11.75) rotate(135)" fill="#ffdc4b" stroke="#707070" stroke-width="1">
              <rect width="1.645" height="1.028" rx="0.514" stroke="none"/>
              <rect x="0.5" y="0.5" width="0.645" height="0.028" rx="0.014" fill="none"/>
            </g>
          </g>
          <g id="Ellipse_44" data-name="Ellipse 44" transform="translate(5.038 6.066)" stroke="#707070" stroke-width="1" opacity="0.478" fill="url(#linear-gradient-5)">
            <circle cx="0.257" cy="0.257" r="0.257" stroke="none"/>
            <circle cx="0.257" cy="0.257" r="0.243" fill="none"/>
          </g>
          <g id="Ellipse_45" data-name="Ellipse 45" transform="translate(7.402 5.038)" stroke="#707070" stroke-width="1" opacity="0.31" fill="url(#linear-gradient-5)">
            <circle cx="0.514" cy="0.514" r="0.514" stroke="none"/>
            <circle cx="0.514" cy="0.514" r="0.014" fill="none"/>
          </g>
          <g id="Ellipse_46" data-name="Ellipse 46" transform="translate(5.963 8.328)" stroke="#707070" stroke-width="1" opacity="0.261" fill="url(#linear-gradient-5)">
            <circle cx="0.411" cy="0.411" r="0.411" stroke="none"/>
            <circle cx="0.411" cy="0.411" r="0.089" fill="none"/>
          </g>
        </g>
        <g id="Group_26" data-name="Group 26" transform="translate(0 5.227)">
          <g transform="matrix(1, 0, 0, 1, -5.32, -13.16)" filter="url(#clouds)">
            <g id="clouds-2" data-name="clouds" transform="translate(5.32 13.16)" fill="url(#linear-gradient-8)">
              <path d="M 17.63190078735352 12.894700050354 L 8.748000144958496 12.894700050354 C 8.643039703369141 12.894700050354 8.536749839782715 12.88949966430664 8.432069778442383 12.87924003601074 L 8.384739875793457 12.87460041046143 L 8.337379455566406 12.87895965576172 C 8.224120140075684 12.88940048217773 8.109129905700684 12.894700050354 7.995599746704102 12.894700050354 L 4.168799877166748 12.894700050354 C 2.145819902420044 12.894700050354 0.4999999105930328 11.24888038635254 0.4999999105930328 9.225899696350098 C 0.4999999105930328 7.216330051422119 2.13470983505249 5.570590019226074 4.144040107727051 5.557270050048828 L 4.585219860076904 5.55433988571167 L 4.637229919433594 5.116219997406006 C 4.949659824371338 2.484549999237061 7.187009811401367 0.5 9.841500282287598 0.5 C 11.10348033905029 0.5 12.3226900100708 0.9550700187683105 13.27452945709229 1.781390070915222 C 14.21722030639648 2.599760055541992 14.83815002441406 3.72625994682312 15.02293014526367 4.953390121459961 L 15.11993980407715 5.59758996963501 L 15.71714019775391 5.337289810180664 C 16.21419906616211 5.120649814605713 16.74365043640137 5.010799884796143 17.29080009460449 5.010799884796143 C 19.46414947509766 5.010799884796143 21.2322998046875 6.778950214385986 21.2322998046875 8.952300071716309 C 21.2322998046875 9.963560104370117 20.85009002685547 10.92500019073486 20.15608024597168 11.65952968597412 L 20.14167022705078 11.67479038238525 L 20.12858963012695 11.69118976593018 C 19.51869964599609 12.45604038238525 18.60869026184082 12.894700050354 17.63190078735352 12.894700050354 Z" stroke="none"/>
              <path d="M 17.63190078735352 12.394700050354 C 18.45565986633301 12.394700050354 19.22318077087402 12.02466011047363 19.7376594543457 11.37946033477783 L 19.76383018493652 11.34665012359619 L 19.79265022277832 11.31614971160889 C 20.39859008789062 10.67481994628906 20.7322998046875 9.835330009460449 20.7322998046875 8.952300071716309 C 20.7322998046875 7.054649829864502 19.18844985961914 5.510799884796143 17.29080009460449 5.510799884796143 C 16.81280899047852 5.510799884796143 16.35057067871094 5.606639862060547 15.91691017150879 5.795650005340576 L 14.72251987457275 6.316229820251465 L 14.52851009368896 5.027840137481689 C 14.36141967773438 3.918260097503662 13.79967975616455 2.899399995803833 12.9467601776123 2.158960103988647 C 12.08584976196289 1.411589980125427 10.98305034637451 1 9.841500282287598 1 C 7.440219879150391 1 5.416319847106934 2.794929981231689 5.133749961853027 5.175169944763184 L 5.029719829559326 6.05141019821167 L 4.147349834442139 6.057260036468506 C 2.41189980506897 6.068769931793213 0.9999998807907104 7.490210056304932 0.9999998807907104 9.225899696350098 C 0.9999998807907104 10.97317981719971 2.421519994735718 12.394700050354 4.168799877166748 12.394700050354 L 7.995599746704102 12.394700050354 C 8.093870162963867 12.394700050354 8.193419456481934 12.3901195526123 8.291469573974609 12.38107013702393 L 8.386189460754395 12.37234020233154 L 8.480850219726562 12.38162040710449 C 8.569379806518555 12.39029979705811 8.659259796142578 12.394700050354 8.748000144958496 12.394700050354 L 17.63190078735352 12.394700050354 M 17.63190078735352 13.394700050354 L 8.748000144958496 13.394700050354 C 8.62494945526123 13.394700050354 8.503250122070312 13.38860988616943 8.38329029083252 13.37685012817383 C 8.255640029907227 13.38862037658691 8.126330375671387 13.394700050354 7.995599746704102 13.394700050354 L 4.168799877166748 13.394700050354 C 1.866599917411804 13.394700050354 -9.765625463842298e-08 11.52810001373291 -9.765625463842298e-08 9.225899696350098 C -9.765625463842298e-08 6.933110237121582 1.851499915122986 5.072460174560547 4.140719890594482 5.05728006362915 C 4.478859901428223 2.209010124206543 6.902259826660156 2.517700181670079e-08 9.841500282287598 2.517700181670079e-08 C 12.7183895111084 2.517700181670079e-08 15.10149002075195 2.117200136184692 15.51735973358154 4.878940105438232 C 16.06059074401855 4.642169952392578 16.66037940979004 4.510799884796143 17.29080009460449 4.510799884796143 C 19.74419975280762 4.510799884796143 21.7322998046875 6.499800205230713 21.7322998046875 8.952300071716309 C 21.7322998046875 10.13362979888916 21.27140045166016 11.20713996887207 20.5195198059082 12.00292015075684 C 19.84328079223633 12.85097026824951 18.80108070373535 13.394700050354 17.63190078735352 13.394700050354 Z" stroke="none" fill="#707070"/>
            </g>
          </g>
          <g id="Subtraction_3" data-name="Subtraction 3" transform="translate(0 0)" fill="#fff">
            <path d="M 1.391053318977356 11.6201171875 C 0.8360575437545776 10.97708415985107 0.5000015497207642 10.13996982574463 0.5000015497207642 9.225899696350098 C 0.5000015497207642 8.311511039733887 0.8385350108146667 7.472360610961914 1.396758913993835 6.828109741210938 C 0.9738709330558777 7.530063152313232 0.730301558971405 8.350890159606934 0.730301558971405 9.225899696350098 C 0.730301558971405 10.0802526473999 0.9604836106300354 10.90273571014404 1.391053318977356 11.6201171875 Z M 4.723555564880371 4.606020450592041 C 4.905592441558838 3.778851747512817 5.281235218048096 3.029347896575928 5.79822301864624 2.404139041900635 C 5.378694534301758 3.067533016204834 5.085282802581787 3.80701732635498 4.939036846160889 4.579633712768555 C 4.866611480712891 4.586787223815918 4.79498815536499 4.595567226409912 4.723555564880371 4.606020450592041 Z" stroke="none"/>
            <path d="M 9.858171463012695 13.394700050354 L 9.32319164276123 13.394700050354 C 9.415361404418945 13.39130020141602 9.513141632080078 13.38591957092285 9.613801956176758 13.37670040130615 C 9.695161819458008 13.38463973999023 9.777321815490723 13.3900203704834 9.85820198059082 13.3927001953125 L 9.858171463012695 13.394700050354 Z M 5.269041538238525 13.394700050354 L 4.168801307678223 13.394700050354 C 1.870121598243713 13.394700050354 1.539916979709233e-06 11.52458000183105 1.539916979709233e-06 9.225899696350098 C 1.539916979709233e-06 6.942470073699951 1.857601523399353 5.072350025177002 4.140901565551758 5.05709981918335 C 4.483351707458496 2.174459934234619 6.934501647949219 2.517700181670079e-08 9.841501235961914 2.517700181670079e-08 C 10.04633140563965 2.517700181670079e-08 10.25320148468018 0.01097002532333136 10.45637130737305 0.03261002525687218 C 9.173011779785156 0.169370025396347 7.95803165435791 0.7460400462150574 7.035251617431641 1.658380031585693 C 6.113921642303467 2.569299936294556 5.522951602935791 3.776319980621338 5.371201515197754 5.05709981918335 C 3.087461471557617 5.072360038757324 1.23030149936676 6.942080020904541 1.23030149936676 9.225899696350098 C 1.23030149936676 10.31501007080078 1.649311542510986 11.34607028961182 2.410151481628418 12.129150390625 C 3.169381618499756 12.91057968139648 4.184691429138184 13.35931968688965 5.269071578979492 13.3927001953125 L 5.269041538238525 13.394700050354 Z M 16.74721145629883 4.878900051116943 L 16.74701118469238 4.877610206604004 C 16.73063087463379 4.769030094146729 16.71080207824707 4.659299850463867 16.68809127807617 4.551459789276123 C 16.89005088806152 4.5240797996521 17.09255218505859 4.510799884796143 17.29080200195312 4.510799884796143 C 17.49648094177246 4.510799884796143 17.70348167419434 4.525030136108398 17.90606117248535 4.553100109100342 C 17.50921058654785 4.608049869537354 17.11972236633301 4.716830253601074 16.7484016418457 4.878379821777344 L 16.74721145629883 4.878900051116943 Z" stroke="none" fill="#707070"/>
          </g>
        </g>
      </g>
    </g>
  </g>
</svg>
