<svg xmlns="http://www.w3.org/2000/svg" xmlns:xlink="http://www.w3.org/1999/xlink" width="36" height="36" viewBox="0 0 36 36">
  <defs>
    <linearGradient id="linear-gradient" x1="0.872" y1="0.093" x2="0.142" y2="0.932" gradientUnits="objectBoundingBox">
      <stop offset="0" stop-color="#342e80"/>
      <stop offset="1" stop-color="#5c6ebc"/>
    </linearGradient>
    <filter id="Rectangle_18" x="-148.5" y="-98.5" width="333" height="333" filterUnits="userSpaceOnUse">
      <feOffset dy="50" input="SourceAlpha"/>
      <feGaussianBlur stdDeviation="49.5" result="blur"/>
      <feFlood flood-opacity="0.161"/>
      <feComposite operator="in" in2="blur"/>
      <feComposite in="SourceGraphic"/>
    </filter>
    <linearGradient id="linear-gradient-2" x1="0.881" y1="0.863" x2="0.24" y2="0.176" gradientUnits="objectBoundingBox">
      <stop offset="0" stop-color="#a8a8a8"/>
      <stop offset="1" stop-color="#eaeaea"/>
    </linearGradient>
    <filter id="Subtraction_2" x="-21.309" y="-21.169" width="76.538" height="76.537" filterUnits="userSpaceOnUse">
      <feOffset input="SourceAlpha"/>
      <feGaussianBlur stdDeviation="10" result="blur-2"/>
      <feFlood flood-color="#fff"/>
      <feComposite operator="in" in2="blur-2"/>
      <feComposite in="SourceGraphic"/>
    </filter>
    <linearGradient id="linear-gradient-3" x1="0.184" y1="0.127" x2="0.839" y2="0.848" gradientUnits="objectBoundingBox">
      <stop offset="0" stop-color="#fff"/>
      <stop offset="1" stop-color="#d8d8d8"/>
    </linearGradient>
    <linearGradient id="linear-gradient-4" x1="0.184" y1="0.127" x2="0.839" y2="0.848" gradientUnits="objectBoundingBox">
      <stop offset="0" stop-color="#fff"/>
      <stop offset="1" stop-color="#f2f2f2"/>
    </linearGradient>
    <filter id="Subtraction_1" x="-18.382" y="-17.999" width="75.048" height="75.047" filterUnits="userSpaceOnUse">
      <feOffset input="SourceAlpha"/>
      <feGaussianBlur stdDeviation="10" result="blur-3"/>
      <feFlood flood-color="#fff"/>
      <feComposite operator="in" in2="blur-3"/>
      <feComposite in="SourceGraphic"/>
    </filter>
    <linearGradient id="linear-gradient-5" x1="0.5" x2="0.5" y2="1" gradientUnits="objectBoundingBox">
      <stop offset="0" stop-color="#fff" stop-opacity="0.2"/>
      <stop offset="1" stop-color="#fff"/>
    </linearGradient>
    <clipPath id="clip-Custom_Size_1">
      <rect width="36" height="36"/>
    </clipPath>
  </defs>
  <g id="Custom_Size_1" data-name="Custom Size – 1" clip-path="url(#clip-Custom_Size_1)">
    <g id="night" transform="translate(-492.832 -184.391)">
      <g transform="matrix(1, 0, 0, 1, 492.83, 184.39)" filter="url(#Rectangle_18)">
        <g id="Rectangle_18-2" data-name="Rectangle 18" stroke="#707070" stroke-width="1" fill="url(#linear-gradient)">
          <rect width="36" height="36" rx="18" stroke="none"/>
          <rect x="0.5" y="0.5" width="35" height="35" rx="17.5" fill="none"/>
        </g>
      </g>
      <g id="Group_24" data-name="Group 24" transform="translate(501.522 193.222)">
        <g id="sun" transform="translate(0 0)">
          <g transform="matrix(1, 0, 0, 1, -8.69, -8.83)" filter="url(#Subtraction_2)">
            <path id="Subtraction_2-2" data-name="Subtraction 2" d="M6.44,15.047a8.538,8.538,0,0,1-3.59-.782A8.632,8.632,0,0,1,0,12.151,8.613,8.613,0,0,0,13.644,9.062,8.6,8.6,0,0,0,12.152,0a8.634,8.634,0,0,1,2.114,2.85A8.617,8.617,0,0,1,9.79,14.371,8.554,8.554,0,0,1,6.44,15.047Z" transform="matrix(-0.99, -0.1, 0.1, -0.99, 23.66, 25.37)" fill="url(#linear-gradient-2)"/>
          </g>
          <circle id="Ellipse_39" data-name="Ellipse 39" cx="8.608" cy="8.608" r="8.608" transform="translate(0.76 1.001)" fill="url(#linear-gradient-3)"/>
          <g transform="matrix(1, 0, 0, 1, -8.69, -8.83)" filter="url(#Subtraction_1)">
            <path id="Subtraction_1-2" data-name="Subtraction 1" d="M6.44,15.047a8.538,8.538,0,0,1-3.59-.782A8.632,8.632,0,0,1,0,12.151,8.613,8.613,0,0,0,13.644,9.062,8.6,8.6,0,0,0,12.152,0a8.634,8.634,0,0,1,2.114,2.85A8.617,8.617,0,0,1,9.79,14.371,8.554,8.554,0,0,1,6.44,15.047Z" transform="translate(11.62 12)" fill="url(#linear-gradient-4)"/>
          </g>
        </g>
        <circle id="Ellipse_44" data-name="Ellipse 44" cx="0.606" cy="0.606" r="0.606" transform="translate(3.912 6.578)" fill="url(#linear-gradient-5)"/>
        <circle id="Ellipse_45" data-name="Ellipse 45" cx="1.212" cy="1.212" r="1.212" transform="translate(9.489 4.153)" fill="url(#linear-gradient-5)"/>
        <circle id="Ellipse_46" data-name="Ellipse 46" cx="0.97" cy="0.97" r="0.97" transform="translate(6.094 11.913)" fill="url(#linear-gradient-5)"/>
        <ellipse id="Ellipse_53" data-name="Ellipse 53" cx="0.424" cy="0.424" rx="0.424" ry="0.424" transform="translate(10.691 10.294)" opacity="0.631" fill="url(#linear-gradient-5)"/>
        <ellipse id="Ellipse_54" data-name="Ellipse 54" cx="0.847" cy="0.847" rx="0.847" ry="0.847" transform="translate(14.588 8.6)" opacity="0.631" fill="url(#linear-gradient-5)"/>
        <ellipse id="Ellipse_55" data-name="Ellipse 55" cx="0.678" cy="0.678" rx="0.678" ry="0.678" transform="translate(12.216 14.022)" opacity="0.631" fill="url(#linear-gradient-5)"/>
      </g>
      <ellipse id="Ellipse_56" data-name="Ellipse 56" cx="0.339" cy="0.339" rx="0.339" ry="0.339" transform="translate(522.382 190.127)" opacity="0.136" fill="url(#linear-gradient-5)"/>
      <ellipse id="Ellipse_57" data-name="Ellipse 57" cx="0.508" cy="0.508" rx="0.508" ry="0.508" transform="translate(523.569 197.245)" opacity="0.173" fill="url(#linear-gradient-5)"/>
      <ellipse id="Ellipse_58" data-name="Ellipse 58" cx="0.169" cy="0.169" rx="0.169" ry="0.169" transform="translate(514.586 188.601)" opacity="0.329" fill="url(#linear-gradient-5)"/>
      <ellipse id="Ellipse_59" data-name="Ellipse 59" cx="0.763" cy="0.763" rx="0.763" ry="0.763" transform="translate(506.451 186.059)" opacity="0.103" fill="url(#linear-gradient-5)"/>
      <ellipse id="Ellipse_60" data-name="Ellipse 60" cx="0.763" cy="0.763" rx="0.763" ry="0.763" transform="translate(500.01 189.449)" opacity="0.103" fill="url(#linear-gradient-5)"/>
      <ellipse id="Ellipse_61" data-name="Ellipse 61" cx="0.254" cy="0.254" rx="0.254" ry="0.254" transform="translate(507.129 190.974)" opacity="0.182" fill="url(#linear-gradient-5)"/>
      <ellipse id="Ellipse_62" data-name="Ellipse 62" cx="0.932" cy="0.932" rx="0.932" ry="0.932" transform="translate(517.467 192.33)" opacity="0.108" fill="url(#linear-gradient-5)"/>
      <ellipse id="Ellipse_63" data-name="Ellipse 63" cx="0.763" cy="0.763" rx="0.763" ry="0.763" transform="translate(518.654 185.381)" opacity="0.104" fill="url(#linear-gradient-5)"/>
      <ellipse id="Ellipse_64" data-name="Ellipse 64" cx="0.254" cy="0.254" rx="0.254" ry="0.254" transform="translate(523.569 203.516)" opacity="0.286" fill="url(#linear-gradient-5)"/>
      <ellipse id="Ellipse_65" data-name="Ellipse 65" cx="0.763" cy="0.763" rx="0.763" ry="0.763" transform="translate(525.264 209.278)" opacity="0.172" fill="url(#linear-gradient-5)"/>
    </g>
  </g>
</svg>
