<svg xmlns="http://www.w3.org/2000/svg" xmlns:xlink="http://www.w3.org/1999/xlink" width="36" height="36" viewBox="0 0 36 36">
  <defs>
    <linearGradient id="linear-gradient" x1="0.872" y1="0.093" x2="0.142" y2="0.932" gradientUnits="objectBoundingBox">
      <stop offset="0" stop-color="#7d5dff"/>
      <stop offset="1" stop-color="#29deff"/>
    </linearGradient>
    <filter id="Path_1060" x="-148.5" y="-98.5" width="333" height="333" filterUnits="userSpaceOnUse">
      <feOffset dy="50" input="SourceAlpha"/>
      <feGaussianBlur stdDeviation="49.5" result="blur"/>
      <feFlood flood-opacity="0.161"/>
      <feComposite operator="in" in2="blur"/>
      <feComposite in="SourceGraphic"/>
    </filter>
    <linearGradient id="linear-gradient-2" x1="0.5" x2="0.5" y2="1" gradientUnits="objectBoundingBox">
      <stop offset="0" stop-color="#fff"/>
      <stop offset="1" stop-color="#c3c3c3"/>
    </linearGradient>
    <filter id="clouds" x="-45.711" y="-51.648" width="135.331" height="129.45" filterUnits="userSpaceOnUse">
      <feOffset input="SourceAlpha"/>
      <feGaussianBlur stdDeviation="20" result="blur-2"/>
      <feFlood flood-color="#fff" flood-opacity="0.2"/>
      <feComposite operator="in" in2="blur-2"/>
      <feComposite in="SourceGraphic"/>
    </filter>
    <linearGradient id="linear-gradient-4" x1="0.5" x2="0.5" y2="1" gradientUnits="objectBoundingBox">
      <stop offset="0" stop-color="#fff"/>
      <stop offset="1" stop-color="#f2f2f2"/>
    </linearGradient>
    <filter id="clouds-2" x="-54.184" y="-49.693" width="141.676" height="133.36" filterUnits="userSpaceOnUse">
      <feOffset input="SourceAlpha"/>
      <feGaussianBlur stdDeviation="20" result="blur-3"/>
      <feFlood flood-color="#fff" flood-opacity="0.2"/>
      <feComposite operator="in" in2="blur-3"/>
      <feComposite in="SourceGraphic"/>
    </filter>
    <linearGradient id="linear-gradient-5" x1="0.5" x2="0.5" y2="1" gradientUnits="objectBoundingBox">
      <stop offset="0" stop-color="#f0fdff"/>
      <stop offset="1" stop-color="#65f3ff"/>
    </linearGradient>
    <clipPath id="clip-Custom_Size_1">
      <rect width="36" height="36"/>
    </clipPath>
  </defs>
  <g id="Custom_Size_1" data-name="Custom Size – 1" clip-path="url(#clip-Custom_Size_1)">
    <g id="Rain" transform="translate(-486.551 -188.522)">
      <g transform="matrix(1, 0, 0, 1, 486.55, 188.52)" filter="url(#Path_1060)">
        <g id="Path_1060-2" data-name="Path 1060" fill="url(#linear-gradient)">
          <path d="M 18 35.5 C 13.32557964324951 35.5 8.930939674377441 33.67967987060547 5.625629901885986 30.37437057495117 C 2.320319890975952 27.06905937194824 0.5 22.67441940307617 0.5 18 C 0.5 13.32557964324951 2.320319890975952 8.930939674377441 5.625629901885986 5.625629901885986 C 8.930939674377441 2.320319890975952 13.32557964324951 0.5 18 0.5 C 22.67441940307617 0.5 27.06905937194824 2.320319890975952 30.37437057495117 5.625629901885986 C 33.67967987060547 8.930939674377441 35.5 13.32557964324951 35.5 18 C 35.5 22.67441940307617 33.67967987060547 27.06905937194824 30.37437057495117 30.37437057495117 C 27.06905937194824 33.67967987060547 22.67441940307617 35.5 18 35.5 Z" stroke="none"/>
          <path d="M 18 1 C 13.45912933349609 1 9.190059661865234 2.768310546875 5.979179382324219 5.979179382324219 C 2.768310546875 9.190059661865234 1 13.45912933349609 1 18 C 1 22.54087066650391 2.768310546875 26.80994033813477 5.979179382324219 30.02082061767578 C 9.190059661865234 33.231689453125 13.45912933349609 35 18 35 C 22.54087066650391 35 26.80994033813477 33.231689453125 30.02082061767578 30.02082061767578 C 33.231689453125 26.80994033813477 35 22.54087066650391 35 18 C 35 13.45912933349609 33.231689453125 9.190059661865234 30.02082061767578 5.979179382324219 C 26.80994033813477 2.768310546875 22.54087066650391 1 18 1 M 18 0 C 27.94112968444824 0 36 8.058870315551758 36 18 C 36 27.94112968444824 27.94112968444824 36 18 36 C 8.058870315551758 36 0 27.94112968444824 0 18 C 0 8.058870315551758 8.058870315551758 0 18 0 Z" stroke="none" fill="#707070"/>
        </g>
      </g>
      <g id="Group_33" data-name="Group 33" transform="translate(492.367 196.874)">
        <g id="Group_32" data-name="Group 32" transform="translate(8.472)">
          <g transform="matrix(1, 0, 0, 1, -14.29, -8.35)" filter="url(#clouds)">
            <g id="clouds-3" data-name="clouds" transform="translate(14.29 8.35)" fill="url(#linear-gradient-2)">
              <path d="M 12.43889999389648 8.949999809265137 L 6.171299934387207 8.949999809265137 C 6.102069854736328 8.949999809265137 6.032020092010498 8.946569442749023 5.963099956512451 8.939820289611816 L 5.91579008102417 8.935179710388184 L 5.868450164794922 8.939539909362793 C 5.793069839477539 8.946479797363281 5.716619968414307 8.949999809265137 5.641200065612793 8.949999809265137 L 2.941200017929077 8.949999809265137 C 1.595120072364807 8.949999809265137 0.5 7.854879856109619 0.5 6.508800029754639 C 0.5 5.171770095825195 1.587610006332397 4.076709747314453 2.924449920654297 4.067709922790527 L 3.365580081939697 4.06473970413208 L 3.41759991645813 3.62667989730835 C 3.629260063171387 1.84417986869812 5.144680023193359 0.4999999105930328 6.942600250244141 0.4999999105930328 C 7.797530174255371 0.4999999105930328 8.623470306396484 0.808259904384613 9.268289566040039 1.367989897727966 C 9.906949996948242 1.922379851341248 10.32760047912598 2.685349941253662 10.4527702331543 3.516359806060791 L 10.54977035522461 4.160429954528809 L 11.14690017700195 3.900279998779297 C 11.47873020172119 3.755699872970581 11.8322696685791 3.682399988174438 12.19770050048828 3.682399988174438 C 13.64997959136963 3.682399988174438 14.83150005340576 4.863919734954834 14.83150005340576 6.316199779510498 C 14.83150005340576 6.991819858551025 14.57602024078369 7.634170055389404 14.11211967468262 8.124919891357422 L 14.09768962860107 8.140190124511719 L 14.08458042144775 8.156620025634766 C 13.68245029449463 8.660829544067383 13.08261966705322 8.949999809265137 12.43889999389648 8.949999809265137 Z" stroke="none"/>
              <path d="M 12.43889999389648 8.449999809265137 C 12.92961025238037 8.449999809265137 13.38696002960205 8.229430198669434 13.69367980957031 7.844860076904297 L 13.71988964080811 7.811989784240723 L 13.74876976013184 7.781449794769287 C 14.12454986572266 7.383909702301025 14.33150005340576 6.863549709320068 14.33150005340576 6.316199779510498 C 14.33150005340576 5.139619827270508 13.37427997589111 4.182399749755859 12.19770050048828 4.182399749755859 C 11.90141010284424 4.182399749755859 11.6150598526001 4.241699695587158 11.34659957885742 4.358659744262695 L 10.15235996246338 4.878960132598877 L 9.958339691162109 3.590829849243164 C 9.735879898071289 2.113809823989868 8.439390182495117 0.9999998807907104 6.942600250244141 0.9999998807907104 C 5.397880077362061 0.9999998807907104 4.095920085906982 2.154569864273071 3.914109945297241 3.68563985824585 L 3.810080051422119 4.561759948730469 L 2.927819967269897 4.567699909210205 C 1.864820003509521 4.574850082397461 1 5.445630073547363 1 6.508800029754639 C 1 7.579179763793945 1.870820045471191 8.449999809265137 2.941200017929077 8.449999809265137 L 5.641200065612793 8.449999809265137 C 5.701370239257812 8.449999809265137 5.762400150299072 8.447190284729004 5.8225998878479 8.44163990020752 L 5.917270183563232 8.432919502258301 L 6.011889934539795 8.44219970703125 C 6.06466007232666 8.447380065917969 6.118289947509766 8.449999809265137 6.171299934387207 8.449999809265137 L 12.43889999389648 8.449999809265137 M 12.43889999389648 9.449999809265137 L 6.171299934387207 9.449999809265137 C 6.084569931030273 9.449999809265137 5.998859882354736 9.445719718933105 5.914309978485107 9.437429428100586 C 5.824409961700439 9.445710182189941 5.733260154724121 9.449999809265137 5.641200065612793 9.449999809265137 L 2.941200017929077 9.449999809265137 C 1.316699981689453 9.449999809265137 2.670287990724773e-08 8.133299827575684 2.670287990724773e-08 6.508800029754639 C 2.670287990724773e-08 4.891039848327637 1.305899977684021 3.578589916229248 2.921090126037598 3.56771993637085 C 3.15966010093689 1.558599948883057 4.869359970092773 -9.536743306171047e-08 6.942600250244141 -9.536743306171047e-08 C 8.972430229187012 -9.536743306171047e-08 10.65377044677734 1.493779897689819 10.947190284729 3.441890001296997 C 11.33024978637695 3.274999856948853 11.75319004058838 3.182399988174438 12.19770050048828 3.182399988174438 C 13.92840003967285 3.182399988174438 15.33150005340576 4.58549976348877 15.33150005340576 6.316199779510498 C 15.33150005340576 7.149650096893311 15.0061502456665 7.907000064849854 14.47548007965088 8.468389511108398 C 13.99845027923584 9.066499710083008 13.26350975036621 9.449999809265137 12.43889999389648 9.449999809265137 Z" stroke="none" fill="#707070"/>
            </g>
          </g>
          <g id="Subtraction_3" data-name="Subtraction 3" transform="translate(0 0)" fill="url(#linear-gradient-2)">
            <path d="M3.7,9.45H2.941a2.941,2.941,0,0,1-.02-5.882A4.049,4.049,0,0,1,6.943,0a4.109,4.109,0,0,1,.434.023A4.053,4.053,0,0,0,3.789,3.568,2.941,2.941,0,0,0,3.7,9.448Zm8.116-6.008h0c-.012-.076-.025-.154-.041-.229a3.17,3.17,0,0,1,.858,0,3.115,3.115,0,0,0-.815.229Z" stroke="none"/>
            <path d="M 3.699576377868652 9.449999809265137 L 2.941196441650391 9.449999809265137 C 1.319416403770447 9.449999809265137 -3.556823685357813e-06 8.130579948425293 -3.556823685357813e-06 6.508800029754639 C -3.556823685357813e-06 4.89778995513916 1.31053638458252 3.578369855880737 2.921396493911743 3.567600011825562 C 3.162826538085938 1.534109950065613 4.891996383666992 -9.536743306171047e-08 6.942596435546875 -9.536743306171047e-08 C 7.08708667755127 -9.536743306171047e-08 7.232996463775635 0.007739904802292585 7.37627649307251 0.02300990372896194 C 6.471536636352539 0.1194999068975449 5.614586353302002 0.5262098908424377 4.963276386260986 1.170209884643555 C 4.313276290893555 1.81292986869812 3.896246433258057 2.664330005645752 3.788996458053589 3.567600011825562 C 2.177686452865601 3.578369855880737 0.867596447467804 4.897389888763428 0.867596447467804 6.508800029754639 C 0.867596447467804 7.274169921875 1.16119647026062 7.999529838562012 1.694316387176514 8.55126953125 C 2.226106405258179 9.101630210876465 2.938266515731812 9.420100212097168 3.699616432189941 9.447999954223633 L 3.699576377868652 9.449999809265137 Z M 11.81520652770996 3.44159984588623 L 11.81500625610352 3.440310001373291 C 11.80347633361816 3.363969802856445 11.78952598571777 3.286789894104004 11.77353668212891 3.210929870605469 C 11.91664600372314 3.191589832305908 12.05906677246094 3.182399988174438 12.19769668579102 3.182399988174438 C 12.34281635284424 3.182399988174438 12.48882675170898 3.192439794540405 12.6316967010498 3.21222996711731 C 12.3525562286377 3.250880002975464 12.07825660705566 3.327209949493408 11.81639671325684 3.44107985496521 L 11.81520652770996 3.44159984588623 Z" stroke="none" fill="#707070"/>
          </g>
        </g>
        <g id="Group_31" data-name="Group 31" transform="translate(0 1.955)">
          <g transform="matrix(1, 0, 0, 1, -5.82, -10.31)" filter="url(#clouds-2)">
            <g id="clouds-4" data-name="clouds" transform="translate(5.82 10.31)" fill="url(#linear-gradient-4)">
              <path d="M 17.58600044250488 12.85960006713867 L 8.724599838256836 12.85960006713867 C 8.620129585266113 12.85960006713867 8.514309883117676 12.85441970825195 8.410070419311523 12.84420013427734 L 8.362770080566406 12.83957004547119 L 8.315449714660645 12.8439302444458 C 8.202509880065918 12.85433006286621 8.087929725646973 12.85960006713867 7.974900245666504 12.85960006713867 L 4.157999992370605 12.85960006713867 C 2.14096999168396 12.85960006713867 0.5 11.21862983703613 0.5 9.201600074768066 C 0.5 7.197949886322021 2.129810094833374 5.557050228118896 4.133120059967041 5.543769836425781 L 4.574299812316895 5.540840148925781 L 4.626319885253906 5.102729797363281 C 4.937880039215088 2.478739976882935 7.168690204620361 0.5000000596046448 9.815400123596191 0.5000000596046448 C 11.07421016693115 0.5000000596046448 12.29018974304199 0.953730046749115 13.23933029174805 1.777610063552856 C 14.17928981781006 2.593519926071167 14.79839992523193 3.716759920120239 14.98262977600098 4.940430164337158 L 15.07960987091064 5.584589958190918 L 15.67679977416992 5.324359893798828 C 16.17210006713867 5.108530044555664 16.69968032836914 4.999100208282471 17.24489974975586 4.999100208282471 C 19.41230010986328 4.999100208282471 21.17560005187988 6.76200008392334 21.17560005187988 8.928899765014648 C 21.17560005187988 9.936320304870605 20.79496002197266 10.8943395614624 20.10380935668945 11.62646961212158 L 20.08935928344727 11.641770362854 L 20.07625961303711 11.65822982788086 C 19.46826934814453 12.42172050476074 18.56060981750488 12.85960006713867 17.58600044250488 12.85960006713867 Z" stroke="none"/>
              <path d="M 17.58600044250488 12.35960006713867 C 18.40744972229004 12.35960006713867 19.17255020141602 11.99042987823486 19.68511962890625 11.34675979614258 L 19.71133995056152 11.31383991241455 L 19.74023056030273 11.28322982788086 C 20.34341049194336 10.64428997039795 20.67560005187988 9.808170318603516 20.67560005187988 8.928899765014648 C 20.67560005187988 7.037700176239014 19.1365909576416 5.499100208282471 17.24489974975586 5.499100208282471 C 16.76882934570312 5.499100208282471 16.30843925476074 5.59453010559082 15.87652969360352 5.782730102539062 L 14.68216991424561 6.30318021774292 L 14.48820018768311 5.014870166778564 C 14.32166957855225 3.908760070800781 13.76175022125244 2.893180131912231 12.91158008575439 2.155210018157959 C 12.05337047576904 1.410260081291199 10.95378971099854 1 9.815400123596191 1 C 7.421899795532227 1 5.404530048370361 2.789139986038208 5.122829914093018 5.161680221557617 L 5.018800258636475 6.037909984588623 L 4.136439800262451 6.043759822845459 C 2.407000064849854 6.055220127105713 1 7.471819877624512 1 9.201600074768066 C 1 10.94293022155762 2.416670083999634 12.35960006713867 4.157999992370605 12.35960006713867 L 7.974900245666504 12.35960006713867 C 8.072690010070801 12.35960006713867 8.171839714050293 12.35503959655762 8.269610404968262 12.34603023529053 L 8.364250183105469 12.33732032775879 L 8.458840370178223 12.34659004211426 C 8.546930313110352 12.35521984100342 8.636349678039551 12.35960006713867 8.724599838256836 12.35960006713867 L 17.58600044250488 12.35960006713867 M 17.58600044250488 13.35960006713867 L 8.724599838256836 13.35960006713867 C 8.602049827575684 13.35960006713867 8.480779647827148 13.35352993011475 8.361300468444824 13.34181976318359 C 8.234129905700684 13.35352993011475 8.105130195617676 13.35960006713867 7.974900245666504 13.35960006713867 L 4.157999992370605 13.35960006713867 C 1.861199975013733 13.35960006713867 2.593993997379584e-08 11.49839973449707 2.593993997379584e-08 9.201600074768066 C 2.593993997379584e-08 6.915090084075928 1.845980048179626 5.058919906616211 4.129809856414795 5.043779850006104 C 4.467120170593262 2.202860116958618 6.884500026702881 3.356933575560106e-08 9.815400123596191 3.356933575560106e-08 C 12.68575000762939 3.356933575560106e-08 15.06233978271484 2.111400127410889 15.47706031799316 4.865990161895752 C 16.01872062683105 4.629960060119629 16.61647987365723 4.499100208282471 17.24489974975586 4.499100208282471 C 19.6919994354248 4.499100208282471 21.67560005187988 6.482699871063232 21.67560005187988 8.928899765014648 C 21.67560005187988 10.10630035400391 21.21647071838379 11.17621040344238 20.4673900604248 11.96969985961914 C 19.79302024841309 12.81655025482178 18.75295066833496 13.35960006713867 17.58600044250488 13.35960006713867 Z" stroke="none" fill="#707070"/>
            </g>
          </g>
          <g id="Subtraction_3-2" data-name="Subtraction 3" transform="translate(0 0)" fill="#fff">
            <path d="M 1.377081990242004 11.57556343078613 C 0.830525815486908 10.93619918823242 0.5000006556510925 10.10670280456543 0.5000006556510925 9.201600074768066 C 0.5000006556510925 8.296032905578613 0.8330063223838806 7.464487075805664 1.382920026779175 6.823858737945557 C 0.9664280414581299 7.520947933197021 0.7267006635665894 8.334702491760254 0.7267006635665894 9.201600074768066 C 0.7267006635665894 10.04818248748779 0.9531601667404175 10.8632984161377 1.377081990242004 11.57556343078613 Z M 4.712769031524658 4.592106819152832 C 4.893147945404053 3.772910594940186 5.264099597930908 3.030092716217041 5.774497509002686 2.40939474105835 C 5.360209941864014 3.067663908004761 5.070072650909424 3.800707340240479 4.924797058105469 4.566169738769531 C 4.853609085083008 4.573216438293457 4.782995700836182 4.581864356994629 4.712769031524658 4.592106819152832 Z" stroke="none"/>
            <path d="M 9.831550598144531 13.35960006713867 L 9.298490524291992 13.35960006713867 C 9.390320777893066 13.35620021820068 9.487940788269043 13.35081958770752 9.588601112365723 13.34160041809082 C 9.669350624084473 13.3495397567749 9.751040458679199 13.35492038726807 9.83158016204834 13.35760021209717 L 9.831550598144531 13.35960006713867 Z M 5.254810810089111 13.35960006713867 L 4.158000469207764 13.35960006713867 C 1.865270614624023 13.35960006713867 6.356811468322121e-07 11.49433040618896 6.356811468322121e-07 9.201600074768066 C 6.356811468322121e-07 6.92411994934082 1.852760672569275 5.058849811553955 4.130100727081299 5.043600082397461 C 4.470790863037109 2.168659925460815 6.915360450744629 3.356933575560106e-08 9.815401077270508 3.356933575560106e-08 C 10.01974105834961 3.356933575560106e-08 10.22606086730957 0.01094003394246101 10.42864036560059 0.03252003341913223 C 9.149170875549316 0.1689400374889374 7.937620639801025 0.7441400289535522 7.017180442810059 1.654150009155273 C 6.098220825195312 2.562700033187866 5.508560657501221 3.766430139541626 5.356800556182861 5.043600082397461 C 3.079010725021362 5.058859825134277 1.226700663566589 6.923739910125732 1.226700663566589 9.201600074768066 C 1.226700663566589 10.2878999710083 1.644600629806519 11.3162899017334 2.403410673141479 12.09733009338379 C 3.160630702972412 12.87672996520996 4.173290729522705 13.32429981231689 5.254840850830078 13.35760021209717 L 5.254810810089111 13.35960006713867 Z M 16.70401000976562 4.866300106048584 L 16.70380973815918 4.865010261535645 C 16.68749046325684 4.756850242614746 16.66769027709961 4.647310256958008 16.64496040344238 4.539430141448975 C 16.84580039978027 4.512259960174561 17.04736137390137 4.499100208282471 17.24489974975586 4.499100208282471 C 17.45004081726074 4.499100208282471 17.65645027160645 4.513279914855957 17.8583812713623 4.541250228881836 C 17.46242141723633 4.59607982635498 17.07444000244141 4.704599857330322 16.7052001953125 4.865779876708984 L 16.70401000976562 4.866300106048584 Z" stroke="none" fill="#707070"/>
          </g>
        </g>
      </g>
      <g id="Group_34" data-name="Group 34" transform="translate(495.463 214.254)">
        <g id="Path_1057" data-name="Path 1057" transform="matrix(0.848, 0.53, -0.53, 0.848, 2.028, 0)" fill="url(#linear-gradient-5)">
          <path d="M 1.191660642623901 3.476862907409668 C 0.727570652961731 3.476862907409668 0.3500006496906281 3.099292993545532 0.3500006496906281 2.635202884674072 C 0.3500006496906281 2.264672994613647 0.6651806235313416 1.216342926025391 1.019410610198975 0.5664329528808594 C 1.114175200462341 0.3922806084156036 1.154167413711548 0.3580541014671326 1.164617300033569 0.351590096950531 C 1.16462230682373 0.3516079187393188 1.164662837982178 0.3516163527965546 1.164741277694702 0.3516163527965546 C 1.165832757949829 0.3516163527965546 1.174110531806946 0.3500029444694519 1.191660642623901 0.3500029444694519 C 1.203502655029297 0.3500029444694519 1.211872577667236 0.3503789007663727 1.217535138130188 0.3508000373840332 C 1.232770085334778 0.3658405542373657 1.267789006233215 0.4073151350021362 1.336450695991516 0.5188629627227783 C 1.707690596580505 1.120802998542786 2.033320665359497 2.263582944869995 2.033320665359497 2.635202884674072 C 2.033320665359497 3.099292993545532 1.655750632286072 3.476862907409668 1.191660642623901 3.476862907409668 Z" stroke="none"/>
          <path d="M 1.195325374603271 0.9977157115936279 C 0.9160566329956055 1.606363534927368 0.7000006437301636 2.383636713027954 0.7000006437301636 2.635202884674072 C 0.7000006437301636 2.906302928924561 0.9205605983734131 3.1268630027771 1.191660642623901 3.1268630027771 C 1.46276068687439 3.1268630027771 1.683320641517639 2.906302928924561 1.683320641517639 2.635202884674072 C 1.683320641517639 2.362232685089111 1.459778070449829 1.561523199081421 1.195325374603271 0.9977157115936279 M 1.191660642623901 2.86102294921875e-06 C 1.377910614013672 2.86102294921875e-06 1.462520599365234 0.05599284172058105 1.634510636329651 0.335392951965332 C 2.017380714416504 0.9561929702758789 2.383320569992065 2.163322925567627 2.383320569992065 2.635202884674072 C 2.383320569992065 3.293343067169189 1.849800586700439 3.826863050460815 1.191660642623901 3.826863050460815 C 0.5335206985473633 3.826863050460815 7.152557373046875e-07 3.293343067169189 7.152557373046875e-07 2.635202884674072 C 7.152557373046875e-07 2.189652919769287 0.3361907005310059 1.088603019714355 0.7120906114578247 0.398932933807373 C 0.871160626411438 0.1066229343414307 0.9790806770324707 2.86102294921875e-06 1.191660642623901 2.86102294921875e-06 Z" stroke="none" fill="#707070"/>
        </g>
        <g id="Path_1058" data-name="Path 1058" transform="matrix(0.848, 0.53, -0.53, 0.848, 7.242, 0)" fill="url(#linear-gradient-5)">
          <path d="M 1.191660642623901 3.476862907409668 C 0.727570652961731 3.476862907409668 0.3500006496906281 3.099292993545532 0.3500006496906281 2.635202884674072 C 0.3500006496906281 2.264672994613647 0.6651806235313416 1.216342926025391 1.019410610198975 0.5664329528808594 C 1.114175200462341 0.3922806084156036 1.154167413711548 0.3580541014671326 1.164617300033569 0.351590096950531 C 1.16462230682373 0.3516079187393188 1.164662837982178 0.3516163527965546 1.164741277694702 0.3516163527965546 C 1.165832757949829 0.3516163527965546 1.174110531806946 0.3500029444694519 1.191660642623901 0.3500029444694519 C 1.203502655029297 0.3500029444694519 1.211872577667236 0.3503789007663727 1.217535138130188 0.3508000373840332 C 1.232770085334778 0.3658405542373657 1.267789006233215 0.4073151350021362 1.336450695991516 0.5188629627227783 C 1.707690596580505 1.120802998542786 2.033320665359497 2.263582944869995 2.033320665359497 2.635202884674072 C 2.033320665359497 3.099292993545532 1.655750632286072 3.476862907409668 1.191660642623901 3.476862907409668 Z" stroke="none"/>
          <path d="M 1.195325374603271 0.9977157115936279 C 0.9160566329956055 1.606363534927368 0.7000006437301636 2.383636713027954 0.7000006437301636 2.635202884674072 C 0.7000006437301636 2.906302928924561 0.9205605983734131 3.1268630027771 1.191660642623901 3.1268630027771 C 1.46276068687439 3.1268630027771 1.683320641517639 2.906302928924561 1.683320641517639 2.635202884674072 C 1.683320641517639 2.362232685089111 1.459778070449829 1.561523199081421 1.195325374603271 0.9977157115936279 M 1.191660642623901 2.86102294921875e-06 C 1.377910614013672 2.86102294921875e-06 1.462520599365234 0.05599284172058105 1.634510636329651 0.335392951965332 C 2.017380714416504 0.9561929702758789 2.383320569992065 2.163322925567627 2.383320569992065 2.635202884674072 C 2.383320569992065 3.293343067169189 1.849800586700439 3.826863050460815 1.191660642623901 3.826863050460815 C 0.5335206985473633 3.826863050460815 7.152557373046875e-07 3.293343067169189 7.152557373046875e-07 2.635202884674072 C 7.152557373046875e-07 2.189652919769287 0.3361907005310059 1.088603019714355 0.7120906114578247 0.398932933807373 C 0.871160626411438 0.1066229343414307 0.9790806770324707 2.86102294921875e-06 1.191660642623901 2.86102294921875e-06 Z" stroke="none" fill="#707070"/>
        </g>
        <g id="Path_1059" data-name="Path 1059" transform="matrix(0.848, 0.53, -0.53, 0.848, 12.292, 0)" fill="url(#linear-gradient-5)">
          <path d="M 1.191660642623901 3.476862907409668 C 0.727570652961731 3.476862907409668 0.3500006496906281 3.099292993545532 0.3500006496906281 2.635202884674072 C 0.3500006496906281 2.264672994613647 0.6651806235313416 1.216342926025391 1.019410610198975 0.5664329528808594 C 1.114175200462341 0.3922806084156036 1.154167413711548 0.3580541014671326 1.164617300033569 0.351590096950531 C 1.16462230682373 0.3516079187393188 1.164662837982178 0.3516163527965546 1.164741277694702 0.3516163527965546 C 1.165832757949829 0.3516163527965546 1.174110531806946 0.3500029444694519 1.191660642623901 0.3500029444694519 C 1.203502655029297 0.3500029444694519 1.211872577667236 0.3503789007663727 1.217535138130188 0.3508000373840332 C 1.232770085334778 0.3658405542373657 1.267789006233215 0.4073151350021362 1.336450695991516 0.5188629627227783 C 1.707690596580505 1.120802998542786 2.033320665359497 2.263582944869995 2.033320665359497 2.635202884674072 C 2.033320665359497 3.099292993545532 1.655750632286072 3.476862907409668 1.191660642623901 3.476862907409668 Z" stroke="none"/>
          <path d="M 1.195325374603271 0.9977157115936279 C 0.9160566329956055 1.606363534927368 0.7000006437301636 2.383636713027954 0.7000006437301636 2.635202884674072 C 0.7000006437301636 2.906302928924561 0.9205605983734131 3.1268630027771 1.191660642623901 3.1268630027771 C 1.46276068687439 3.1268630027771 1.683320641517639 2.906302928924561 1.683320641517639 2.635202884674072 C 1.683320641517639 2.362232685089111 1.459778070449829 1.561523199081421 1.195325374603271 0.9977157115936279 M 1.191660642623901 2.86102294921875e-06 C 1.377910614013672 2.86102294921875e-06 1.462520599365234 0.05599284172058105 1.634510636329651 0.335392951965332 C 2.017380714416504 0.9561929702758789 2.383320569992065 2.163322925567627 2.383320569992065 2.635202884674072 C 2.383320569992065 3.293343067169189 1.849800586700439 3.826863050460815 1.191660642623901 3.826863050460815 C 0.5335206985473633 3.826863050460815 7.152557373046875e-07 3.293343067169189 7.152557373046875e-07 2.635202884674072 C 7.152557373046875e-07 2.189652919769287 0.3361907005310059 1.088603019714355 0.7120906114578247 0.398932933807373 C 0.871160626411438 0.1066229343414307 0.9790806770324707 2.86102294921875e-06 1.191660642623901 2.86102294921875e-06 Z" stroke="none" fill="#707070"/>
        </g>
      </g>
    </g>
  </g>
</svg>
