<svg xmlns="http://www.w3.org/2000/svg" xmlns:xlink="http://www.w3.org/1999/xlink" width="36" height="36" viewBox="0 0 36 36">
  <defs>
    <linearGradient id="linear-gradient" x1="0.872" y1="0.093" x2="0.142" y2="0.932" gradientUnits="objectBoundingBox">
      <stop offset="0" stop-color="#7d5dff"/>
      <stop offset="1" stop-color="#29deff"/>
    </linearGradient>
    <filter id="Rectangle_18" x="-148.5" y="-98.5" width="333" height="333" filterUnits="userSpaceOnUse">
      <feOffset dy="50" input="SourceAlpha"/>
      <feGaussianBlur stdDeviation="49.5" result="blur"/>
      <feFlood flood-opacity="0.161"/>
      <feComposite operator="in" in2="blur"/>
      <feComposite in="SourceGraphic"/>
    </filter>
    <linearGradient id="linear-gradient-2" x1="0.881" y1="0.863" x2="0.24" y2="0.176" gradientUnits="objectBoundingBox">
      <stop offset="0" stop-color="#facd0b"/>
      <stop offset="1" stop-color="#ffb7a0"/>
    </linearGradient>
    <filter id="Subtraction_2" x="-18.545" y="-8.816" width="72.169" height="72.169" filterUnits="userSpaceOnUse">
      <feOffset dy="10" input="SourceAlpha"/>
      <feGaussianBlur stdDeviation="10" result="blur-2"/>
      <feFlood flood-color="#ffddbc"/>
      <feComposite operator="in" in2="blur-2"/>
      <feComposite in="SourceGraphic"/>
    </filter>
    <linearGradient id="linear-gradient-3" x1="0.184" y1="0.127" x2="0.839" y2="0.848" gradientUnits="objectBoundingBox">
      <stop offset="0" stop-color="#ffdb45"/>
      <stop offset="1" stop-color="#ffa68b"/>
    </linearGradient>
    <linearGradient id="linear-gradient-4" x1="0.184" y1="0.127" x2="0.839" y2="0.848" gradientUnits="objectBoundingBox">
      <stop offset="0" stop-color="#ffe05d"/>
      <stop offset="1" stop-color="#ffbeaa"/>
    </linearGradient>
    <filter id="Subtraction_1" x="-16.729" y="-6.557" width="71.244" height="71.244" filterUnits="userSpaceOnUse">
      <feOffset dy="10" input="SourceAlpha"/>
      <feGaussianBlur stdDeviation="10" result="blur-3"/>
      <feFlood flood-color="#ffddbc"/>
      <feComposite operator="in" in2="blur-3"/>
      <feComposite in="SourceGraphic"/>
    </filter>
    <linearGradient id="linear-gradient-5" x1="0.5" x2="0.5" y2="1" gradientUnits="objectBoundingBox">
      <stop offset="0" stop-color="#fff" stop-opacity="0.2"/>
      <stop offset="1" stop-color="#fff"/>
    </linearGradient>
    <clipPath id="clip-Custom_Size_1">
      <rect width="36" height="36"/>
    </clipPath>
  </defs>
  <g id="Custom_Size_1" data-name="Custom Size – 1" clip-path="url(#clip-Custom_Size_1)">
    <g id="sunny" transform="translate(-491.917 -183.917)">
      <g transform="matrix(1, 0, 0, 1, 491.92, 183.92)" filter="url(#Rectangle_18)">
        <g id="Rectangle_18-2" data-name="Rectangle 18" stroke="#707070" stroke-width="1" fill="url(#linear-gradient)">
          <rect width="36" height="36" rx="18" stroke="none"/>
          <rect x="0.5" y="0.5" width="35" height="35" rx="17.5" fill="none"/>
        </g>
      </g>
      <g id="Group_24" data-name="Group 24" transform="matrix(0.996, 0.087, -0.087, 0.996, 499.329, 189.299)">
        <g id="sun" transform="translate(0 0)">
          <g transform="matrix(1, -0.09, 0.09, 1, -7.85, -4.72)" filter="url(#Subtraction_2)">
            <g id="Subtraction_2-2" data-name="Subtraction 2" transform="translate(21.64 23.35) rotate(-169)" fill="url(#linear-gradient-2)">
              <path d="M4.442,10.379A5.889,5.889,0,0,1,1.966,9.84,5.954,5.954,0,0,1,0,8.381a5.941,5.941,0,0,0,9.411-2.13A5.932,5.932,0,0,0,8.382,0,5.956,5.956,0,0,1,9.84,1.966,5.944,5.944,0,0,1,6.753,9.912,5.9,5.9,0,0,1,4.442,10.379Z" stroke="none"/>
              <path d="M 4.442026138305664 10.37898063659668 C 3.577956199645996 10.37898063659668 2.74492621421814 10.19755077362061 1.966066241264343 9.839740753173828 C 1.592516303062439 9.668130874633789 1.235306262969971 9.4564208984375 0.9043663144111633 9.210500717163086 C 0.5760263204574585 8.966510772705078 0.2717463076114655 8.687541007995605 -3.701629566421616e-06 8.381340980529785 C 0.5316063165664673 8.853310585021973 1.135866284370422 9.222440719604492 1.796236276626587 9.478250503540039 C 2.479506254196167 9.742920875549316 3.200876235961914 9.877130508422852 3.940316200256348 9.877130508422852 C 4.741846084594727 9.877130508422852 5.519396305084229 9.72014045715332 6.251386165618896 9.410540580749512 C 6.958396434783936 9.111491203308105 7.593366146087646 8.683381080627441 8.138636589050293 8.138100624084473 C 8.683916091918945 7.592820644378662 9.112026214599609 6.957860946655273 9.411076545715332 6.250850677490234 C 9.720685958862305 5.518860816955566 9.877666473388672 4.741310596466064 9.877666473388672 3.939780712127686 C 9.877666473388672 3.200570821762085 9.743486404418945 2.479330778121948 9.478856086730957 1.79607081413269 C 9.223236083984375 1.136090755462646 8.854326248168945 0.5318008065223694 8.382346153259277 7.951355200930266e-07 C 8.688836097717285 0.2721208035945892 8.967626571655273 0.5764607787132263 9.211195945739746 0.9043408036231995 C 9.457036018371582 1.235290765762329 9.668685913085938 1.592470765113831 9.840246200561523 1.965970754623413 C 10.1979866027832 2.744800806045532 10.37937641143799 3.577680826187134 10.37937641143799 4.441490650177002 C 10.37937641143799 5.243050575256348 10.22239589691162 6.020630836486816 9.912796020507812 6.752630710601807 C 9.613766670227051 7.459671020507812 9.185666084289551 8.094660758972168 8.640396118164062 8.639941215515137 C 8.095136642456055 9.185220718383789 7.460166454315186 9.613340377807617 6.753146171569824 9.91239070892334 C 6.021166324615479 10.22199058532715 5.24358606338501 10.37898063659668 4.442026138305664 10.37898063659668 Z" stroke="none" fill="#707070"/>
            </g>
          </g>
          <g id="Ellipse_39" data-name="Ellipse 39" transform="translate(5.647 5.647)" stroke="#707070" stroke-width="1" fill="url(#linear-gradient-3)">
            <circle cx="6" cy="6" r="6" stroke="none"/>
            <circle cx="6" cy="6" r="5.5" fill="none"/>
          </g>
          <g transform="matrix(1, -0.09, 0.09, 1, -7.85, -4.72)" filter="url(#Subtraction_1)">
            <g id="Subtraction_1-2" data-name="Subtraction 1" transform="matrix(1, 0.09, -0.09, 1, 14.18, 13.44)" fill="url(#linear-gradient-4)">
              <path d="M4.442,10.379A5.889,5.889,0,0,1,1.966,9.84,5.954,5.954,0,0,1,0,8.381a5.941,5.941,0,0,0,9.411-2.13A5.932,5.932,0,0,0,8.382,0,5.956,5.956,0,0,1,9.84,1.966,5.944,5.944,0,0,1,6.753,9.912,5.9,5.9,0,0,1,4.442,10.379Z" stroke="none"/>
              <path d="M 4.442026138305664 10.37898063659668 C 3.577956199645996 10.37898063659668 2.74492621421814 10.19755077362061 1.966066241264343 9.839740753173828 C 1.592516303062439 9.668130874633789 1.235306262969971 9.4564208984375 0.9043663144111633 9.210500717163086 C 0.5760263204574585 8.966510772705078 0.2717463076114655 8.687541007995605 -3.701629566421616e-06 8.381340980529785 C 0.5316063165664673 8.853310585021973 1.135866284370422 9.222440719604492 1.796236276626587 9.478250503540039 C 2.479506254196167 9.742920875549316 3.200876235961914 9.877130508422852 3.940316200256348 9.877130508422852 C 4.741846084594727 9.877130508422852 5.519396305084229 9.72014045715332 6.251386165618896 9.410540580749512 C 6.958396434783936 9.111491203308105 7.593366146087646 8.683381080627441 8.138636589050293 8.138100624084473 C 8.683916091918945 7.592820644378662 9.112026214599609 6.957860946655273 9.411076545715332 6.250850677490234 C 9.720685958862305 5.518860816955566 9.877666473388672 4.741310596466064 9.877666473388672 3.939780712127686 C 9.877666473388672 3.200570821762085 9.743486404418945 2.479330778121948 9.478856086730957 1.79607081413269 C 9.223236083984375 1.136090755462646 8.854326248168945 0.5318008065223694 8.382346153259277 7.951355200930266e-07 C 8.688836097717285 0.2721208035945892 8.967626571655273 0.5764607787132263 9.211195945739746 0.9043408036231995 C 9.457036018371582 1.235290765762329 9.668685913085938 1.592470765113831 9.840246200561523 1.965970754623413 C 10.1979866027832 2.744800806045532 10.37937641143799 3.577680826187134 10.37937641143799 4.441490650177002 C 10.37937641143799 5.243050575256348 10.22239589691162 6.020630836486816 9.912796020507812 6.752630710601807 C 9.613766670227051 7.459671020507812 9.185666084289551 8.094660758972168 8.640396118164062 8.639941215515137 C 8.095136642456055 9.185220718383789 7.460166454315186 9.613340377807617 6.753146171569824 9.91239070892334 C 6.021166324615479 10.22199058532715 5.24358606338501 10.37898063659668 4.442026138305664 10.37898063659668 Z" stroke="none" fill="#707070"/>
            </g>
          </g>
          <g id="Rectangle_3" data-name="Rectangle 3" transform="translate(-0.353 10.647)" fill="#ffdc4b" stroke="#707070" stroke-width="0.5">
            <rect width="2" height="2" rx="1" stroke="none"/>
            <rect x="0.25" y="0.25" width="1.5" height="1.5" rx="0.75" fill="none"/>
          </g>
          <g id="Rectangle_4" data-name="Rectangle 4" transform="translate(12.647 -0.353) rotate(90)" fill="#ffdc4b" stroke="#707070" stroke-width="0.5">
            <rect width="2" height="2" rx="1" stroke="none"/>
            <rect x="0.25" y="0.25" width="1.5" height="1.5" rx="0.75" fill="none"/>
          </g>
          <g id="Rectangle_5" data-name="Rectangle 5" transform="translate(21.647 10.647)" fill="#ffdc4b" stroke="#707070" stroke-width="0.5">
            <rect width="2" height="2" rx="1" stroke="none"/>
            <rect x="0.25" y="0.25" width="1.5" height="1.5" rx="0.75" fill="none"/>
          </g>
          <g id="Rectangle_6" data-name="Rectangle 6" transform="translate(3.877 3.029) rotate(45)" fill="#ffdc4b" stroke="#707070" stroke-width="0.5">
            <rect width="2.676" height="1.673" rx="0.836" stroke="none"/>
            <rect x="0.25" y="0.25" width="2.176" height="1.173" rx="0.586" fill="none"/>
          </g>
          <g id="Path_2" data-name="Path 2" transform="translate(12.647 21.647) rotate(90)" fill="#ffdc4b">
            <path d="M 1 1.75 C 0.5864499807357788 1.75 0.25 1.413550019264221 0.25 1 C 0.25 0.5864499807357788 0.5864499807357788 0.25 1 0.25 C 1.413550019264221 0.25 1.75 0.5864499807357788 1.75 1 C 1.75 1.413550019264221 1.413550019264221 1.75 1 1.75 Z" stroke="none"/>
            <path d="M 1 0.5 C 0.7243000268936157 0.5 0.5 0.7243000268936157 0.5 1 C 0.5 1.275699973106384 0.7243000268936157 1.5 1 1.5 C 1.275699973106384 1.5 1.5 1.275699973106384 1.5 1 C 1.5 0.7243000268936157 1.275699973106384 0.5 1 0.5 M 1 0 C 1.552279949188232 0 2 0.4477200508117676 2 1 C 2 1.552279949188232 1.552279949188232 2 1 2 C 0.4477200508117676 2 0 1.552279949188232 0 1 C 0 0.4477200508117676 0.4477200508117676 0 1 0 Z" stroke="none" fill="#707070"/>
          </g>
          <g id="Rectangle_8" data-name="Rectangle 8" transform="translate(21.07 4.211) rotate(135)" fill="#ffdc4b" stroke="#707070" stroke-width="0.5">
            <rect width="2.676" height="1.673" rx="0.836" stroke="none"/>
            <rect x="0.25" y="0.25" width="2.176" height="1.173" rx="0.586" fill="none"/>
          </g>
          <g id="Path_1" data-name="Path 1" transform="translate(18.99 17.975) rotate(45)" fill="#ffdc4b">
            <path d="M 1.672512888908386 1.422515153884888 L 0.8362528681755066 1.422515153884888 C 0.5129928588867188 1.422515153884888 0.2500028610229492 1.159515142440796 0.2500028610229492 0.8362551927566528 C 0.2500028610229492 0.512995183467865 0.5129928588867188 0.2499951869249344 0.8362528681755066 0.2499951869249344 L 1.672512888908386 0.2499951869249344 C 1.995772838592529 0.2499951869249344 2.258762836456299 0.512995183467865 2.258762836456299 0.8362551927566528 C 2.258762836456299 1.159515142440796 1.995772838592529 1.422515153884888 1.672512888908386 1.422515153884888 Z" stroke="none"/>
            <path d="M 0.8362528085708618 0.499995231628418 C 0.6508429050445557 0.499995231628418 0.5000028610229492 0.6508451700210571 0.5000028610229492 0.8362551927566528 C 0.5000028610229492 1.021665215492249 0.6508429050445557 1.172515153884888 0.8362528085708618 1.172515153884888 L 1.672512769699097 1.172515153884888 C 1.857922792434692 1.172515153884888 2.008762836456299 1.021665215492249 2.008762836456299 0.8362551927566528 C 2.008762836456299 0.6508451700210571 1.857922792434692 0.499995231628418 1.672512769699097 0.499995231628418 L 0.8362528085708618 0.499995231628418 M 0.8362528085708618 -4.76837158203125e-06 L 1.672512769699097 -4.76837158203125e-06 C 2.134362936019897 -4.76837158203125e-06 2.508762836456299 0.3744051456451416 2.508762836456299 0.8362551927566528 C 2.508762836456299 1.298105239868164 2.134362936019897 1.672515153884888 1.672512769699097 1.672515153884888 L 0.8362528085708618 1.672515153884888 C 0.3744027614593506 1.672515153884888 2.86102294921875e-06 1.298105239868164 2.86102294921875e-06 0.8362551927566528 C 2.86102294921875e-06 0.3744051456451416 0.3744027614593506 -4.76837158203125e-06 0.8362528085708618 -4.76837158203125e-06 Z" stroke="none" fill="#707070"/>
          </g>
          <g id="Rectangle_10" data-name="Rectangle 10" transform="translate(6.075 19.039) rotate(135)" fill="#ffdc4b" stroke="#707070" stroke-width="0.5">
            <rect width="2.676" height="1.673" rx="0.836" stroke="none"/>
            <rect x="0.25" y="0.25" width="2.176" height="1.173" rx="0.586" fill="none"/>
          </g>
        </g>
        <g id="Ellipse_44" data-name="Ellipse 44" transform="translate(8.647 9.647)" stroke="#707070" stroke-width="1" opacity="0.478" fill="url(#linear-gradient-5)">
          <circle cx="0.5" cy="0.5" r="0.5" stroke="none"/>
          <circle cx="0.5" cy="0.5" fill="none"/>
        </g>
        <g id="Ellipse_45" data-name="Ellipse 45" transform="translate(11.647 8.647)" stroke="#707070" stroke-width="1" opacity="0.31" fill="url(#linear-gradient-5)">
          <ellipse cx="1" cy="0.5" rx="1" ry="0.5" stroke="none"/>
          <ellipse cx="1" cy="0.5" rx="0.5" fill="none"/>
        </g>
        <g id="Ellipse_46" data-name="Ellipse 46" transform="translate(9.647 13.647)" stroke="#707070" stroke-width="1" opacity="0.261" fill="url(#linear-gradient-5)">
          <circle cx="0.5" cy="0.5" r="0.5" stroke="none"/>
          <circle cx="0.5" cy="0.5" fill="none"/>
        </g>
      </g>
    </g>
  </g>
</svg>
