<svg xmlns="http://www.w3.org/2000/svg" xmlns:xlink="http://www.w3.org/1999/xlink" width="40" height="40" viewBox="0 0 40 40">
  <defs>
    <clipPath id="clip-path">
      <rect id="Rectangle_5" data-name="Rectangle 5" width="40" height="40"/>
    </clipPath>
    <linearGradient id="linear-gradient" x1="0.558" y1="-0.153" x2="0.142" y2="0.932" gradientUnits="objectBoundingBox">
      <stop offset="0" stop-color="#5b98eb"/>
      <stop offset="0.397" stop-color="#9ebce5" stop-opacity="0.984"/>
      <stop offset="1" stop-color="#e08327" stop-opacity="0.557"/>
      <stop offset="1" stop-color="#2e2e2e"/>
    </linearGradient>
    <linearGradient id="linear-gradient-2" x1="0.7" y1="-0.074" x2="0.24" y2="0.176" gradientUnits="objectBoundingBox">
      <stop offset="0" stop-color="#facd0b"/>
      <stop offset="1" stop-color="#ff9371"/>
    </linearGradient>
    <filter id="Subtraction_2" x="-16.027" y="-6.473" width="70.835" height="70.834" filterUnits="userSpaceOnUse">
      <feOffset dy="9.95" input="SourceAlpha"/>
      <feGaussianBlur stdDeviation="9.95" result="blur"/>
      <feFlood flood-color="#ffddbc"/>
      <feComposite operator="in" in2="blur"/>
      <feComposite in="SourceGraphic"/>
    </filter>
    <radialGradient id="radial-gradient" cx="0.5" cy="0.5" r="1.211" gradientTransform="translate(1.171 0.722) rotate(153.332)" xlink:href="#linear-gradient-2"/>
    <filter id="Subtraction_1" x="-14.235" y="-4.51" width="70.213" height="70.213" filterUnits="userSpaceOnUse">
      <feOffset dy="10" input="SourceAlpha"/>
      <feGaussianBlur stdDeviation="10" result="blur-2"/>
      <feFlood flood-color="#ffddbc"/>
      <feComposite operator="in" in2="blur-2"/>
      <feComposite in="SourceGraphic"/>
    </filter>
  </defs>
  <g id="Custom_Size_1" data-name="Custom Size – 1" clip-path="url(#clip-path)">
    <g id="Custom_Size_1-2" data-name="Custom Size – 1" clip-path="url(#clip-path)">
      <path id="Path_2" data-name="Path 2" d="M0,0H40V40H0Z" fill="none"/>
      <g id="Group_1" data-name="Group 1" transform="translate(-347 -567)">
        <g id="Rectangle_18" data-name="Rectangle 18" transform="translate(349 569)" stroke="#000" stroke-width="1" fill="url(#linear-gradient)">
          <rect width="36" height="36" rx="15" stroke="none"/>
          <rect x="0.5" y="0.5" width="35" height="35" rx="14.5" fill="none"/>
        </g>
        <g id="Group_24" data-name="Group 24" transform="translate(355.375 575.09)">
          <g id="sun">
            <g transform="matrix(1, 0, 0, 1, -8.38, -8.09)" filter="url(#Subtraction_2)">
              <path id="Subtraction_2-2" data-name="Subtraction 2" d="M4.349,10.162a5.771,5.771,0,0,1-2.424-.528A5.83,5.83,0,0,1,0,8.207,5.814,5.814,0,0,0,8.208,0,5.811,5.811,0,0,1,4.349,10.162Z" transform="translate(23.94 24.56) rotate(-174.23)" fill="url(#linear-gradient-2)"/>
            </g>
            <circle id="Ellipse_39" data-name="Ellipse 39" cx="6" cy="6" r="6" transform="translate(5.625 5.91)" fill="url(#radial-gradient)"/>
            <g transform="matrix(1, 0, 0, 1, -8.38, -8.09)" filter="url(#Subtraction_1)">
              <path id="Subtraction_1-2" data-name="Subtraction 1" d="M4.371,10.213a5.8,5.8,0,0,1-2.436-.531A5.859,5.859,0,0,1,0,8.248,5.843,5.843,0,0,0,8.249,0,5.84,5.84,0,0,1,4.371,10.213Z" transform="translate(15.76 15.49)" fill="url(#linear-gradient-2)"/>
            </g>
            <rect id="Rectangle_3" data-name="Rectangle 3" width="3" height="2" rx="1" transform="translate(-0.375 10.91)" fill="url(#linear-gradient-2)"/>
            <rect id="Rectangle_4" data-name="Rectangle 4" width="3" height="2" rx="1" transform="translate(12.625 -0.09) rotate(90)" fill="url(#linear-gradient-2)"/>
            <rect id="Rectangle_5-2" data-name="Rectangle 5" width="3" height="2" rx="1" transform="translate(20.625 10.91)" fill="url(#linear-gradient-2)"/>
            <rect id="Rectangle_6" data-name="Rectangle 6" width="2.633" height="1.646" rx="0.823" transform="translate(3.89 3.055) rotate(45)" fill="url(#linear-gradient-2)"/>
            <rect id="Rectangle_7" data-name="Rectangle 7" width="3" height="2" rx="1" transform="translate(12.625 20.91) rotate(90)" fill="url(#linear-gradient-2)"/>
            <rect id="Rectangle_8" data-name="Rectangle 8" width="2.633" height="1.646" rx="0.823" transform="translate(20.809 4.219) rotate(135)" fill="url(#linear-gradient-2)"/>
            <rect id="Rectangle_9" data-name="Rectangle 9" width="2.469" height="1.646" rx="0.823" transform="translate(18.763 17.763) rotate(45)" fill="url(#linear-gradient-2)"/>
            <rect id="Rectangle_10" data-name="Rectangle 10" width="2.633" height="1.646" rx="0.823" transform="translate(6.053 18.811) rotate(135)" fill="url(#linear-gradient-2)"/>
          </g>
          <circle id="Ellipse_44" data-name="Ellipse 44" cx="0.5" cy="0.5" r="0.5" transform="translate(7.625 9.91)" opacity="0.478" fill="url(#linear-gradient-2)"/>
          <circle id="Ellipse_45" data-name="Ellipse 45" cx="1" cy="1" r="1" transform="translate(11.625 7.91)" opacity="0.31" fill="url(#linear-gradient-2)"/>
          <ellipse id="Ellipse_46" data-name="Ellipse 46" cx="0.5" cy="1" rx="0.5" ry="1" transform="translate(9.625 12.91)" opacity="0.261" fill="url(#linear-gradient-2)"/>
        </g>
      </g>
    </g>
  </g>
</svg>
